<svg width="1346" height="401" viewBox="0 0 1346 401" fill="none" xmlns="http://www.w3.org/2000/svg">
<path d="M1043.11 184.717L1095.63 142.315C1096.73 141.426 1096.88 139.776 1095.9 138.765C1084.27 126.723 1063.86 126.335 1049.02 138.314C1034.18 150.294 1030.26 170.323 1039.58 184.232C1040.36 185.402 1042.01 185.605 1043.11 184.717Z" fill="#FF6633"/>
<path d="M1222.57 44.6245C1219.98 40.4328 1221.29 34.9226 1225.5 32.317L1270.14 4.71783C1274.36 2.11225 1279.87 3.39801 1282.46 7.58965L1290.56 20.6818C1293.15 24.8734 1291.84 30.3836 1287.62 32.9892L1242.99 60.5884C1238.77 63.194 1233.25 61.9082 1230.66 57.7166L1222.57 44.6245Z" fill="#1CB9FC"/>
<path d="M33.4595 30.8172C37.7829 25.311 50.215 27.8571 61.2274 36.5041C72.2397 45.151 77.662 56.6243 73.3386 62.1305C69.0151 67.6366 56.583 65.0905 45.5707 56.4436C34.5584 47.7967 29.136 36.3233 33.4595 30.8172Z" fill="#FCA21C"/>
<path d="M610.567 368.527L582.836 307.436C582.255 306.156 580.704 305.599 579.487 306.293C565.007 314.484 559.553 334.028 567.388 351.288C575.223 368.548 593.519 377.311 609.223 371.8C610.544 371.336 611.148 369.807 610.567 368.527Z" fill="#FF6633"/>
<path d="M15.9861 352.691C19.2261 352.395 22.0939 354.794 22.3917 358.05L25.5456 392.536C25.8434 395.791 23.4583 398.671 20.2183 398.967L10.0988 399.893C6.85884 400.189 3.99098 397.79 3.69322 394.534L0.539277 360.048C0.241521 356.793 2.62663 353.913 5.86656 353.617L15.9861 352.691Z" fill="#1CB9FC"/>
<path d="M1265.98 315.819C1271.51 306.248 1291.5 307.449 1310.65 318.5C1329.79 329.551 1340.83 346.268 1335.3 355.839C1329.77 365.41 1309.78 364.21 1290.64 353.158C1271.49 342.107 1260.46 325.39 1265.98 315.819Z" fill="#FCA21C"/>
<path fill-rule="evenodd" clip-rule="evenodd" d="M725.093 40.4952C725.632 35.8833 729.819 32.5584 734.443 33.0688C744.857 34.2181 754.584 40.5021 760.27 50.3502C765.956 60.1985 766.532 71.7638 762.322 81.3555C760.453 85.6159 755.48 87.5794 751.216 85.7411C746.952 83.9028 745.011 78.9589 746.881 74.6986C748.868 70.1724 748.766 64.2028 745.643 58.7949C742.52 53.3853 737.402 50.312 732.49 49.7699C727.865 49.2595 724.553 45.1071 725.093 40.4952Z" fill="#70C05B"/>
<path fill-rule="evenodd" clip-rule="evenodd" d="M278.858 334.559C283.657 336.81 285.746 342.544 283.523 347.368C278.516 358.23 268.197 366.494 255.478 369.094C242.76 371.694 230.027 368.14 221.16 360.116C217.222 356.553 216.892 350.458 220.423 346.505C223.954 342.551 230.009 342.236 233.947 345.799C238.131 349.586 244.633 351.631 251.617 350.204C258.603 348.776 263.781 344.343 266.142 339.219C268.365 334.395 274.058 332.309 278.858 334.559Z" fill="#70C05B"/>
</svg>
