<svg width="622" height="275" viewBox="0 0 622 275" fill="none" xmlns="http://www.w3.org/2000/svg">
<path d="M256.243 31.8698H304.397C305.371 31.8698 306.161 31.0795 306.161 30.1058V1.76394C306.161 0.790209 305.371 0 304.397 0H256.243C255.27 0 254.479 0.790209 254.479 1.76394V30.1058C254.479 31.0795 255.27 31.8698 256.243 31.8698Z" fill="white"/>
<path d="M259.333 5.80137H302.426C302.724 5.80137 302.966 5.55955 302.966 5.2616C302.966 4.96365 302.724 4.72183 302.426 4.72183H259.333C259.035 4.72183 258.793 4.96365 258.793 5.2616C258.793 5.55955 259.035 5.80137 259.333 5.80137Z" fill="#61A3C5"/>
<path d="M259.333 11.9352H302.426C302.724 11.9352 302.966 11.6934 302.966 11.3955C302.966 11.0975 302.724 10.8557 302.426 10.8557H259.333C259.035 10.8557 258.793 11.0975 258.793 11.3955C258.793 11.6934 259.035 11.9352 259.333 11.9352Z" fill="#61A3C5"/>
<path d="M274.427 18.0691H302.428C302.726 18.0691 302.968 17.8273 302.968 17.5293C302.968 17.2314 302.726 16.9896 302.428 16.9896H274.427C274.129 16.9896 273.888 17.2314 273.888 17.5293C273.888 17.8273 274.129 18.0691 274.427 18.0691Z" fill="#61A3C5"/>
<path d="M259.013 18.0691H270.188C270.486 18.0691 270.728 17.8273 270.728 17.5293C270.728 17.2314 270.486 16.9896 270.188 16.9896H259.013C258.715 16.9896 258.474 17.2314 258.474 17.5293C258.474 17.8273 258.715 18.0691 259.013 18.0691Z" fill="#61A3C5"/>
<path d="M284.827 24.2029H302.426C302.724 24.2029 302.966 23.9611 302.966 23.6632C302.966 23.3652 302.724 23.1234 302.426 23.1234H284.827C284.529 23.1234 284.287 23.3652 284.287 23.6632C284.287 23.9611 284.529 24.2029 284.827 24.2029Z" fill="#61A3C5"/>
<path d="M259.013 24.2029H280.881C281.179 24.2029 281.42 23.9611 281.42 23.6632C281.42 23.3652 281.179 23.1234 280.881 23.1234H259.013C258.715 23.1234 258.474 23.3652 258.474 23.6632C258.474 23.9611 258.715 24.2029 259.013 24.2029Z" fill="#61A3C5"/>
<path d="M270.285 30.4599C270.231 30.6736 261.91 41.5013 261.859 41.1817C261.805 40.8622 262.819 29.5531 262.819 29.5531L270.285 30.4599Z" fill="white"/>
<path d="M125.147 91.127H173.299C174.272 91.127 175.062 90.3368 175.062 89.363V66.1532C175.062 65.1795 174.272 64.3893 173.299 64.3893H125.147C124.173 64.3893 123.383 65.1795 123.383 66.1532V89.363C123.383 90.3368 124.171 91.127 125.147 91.127Z" fill="white"/>
<path d="M128.236 71.1925H171.33C171.628 71.1925 171.869 70.9506 171.869 70.6527C171.869 70.3548 171.628 70.1129 171.33 70.1129H128.236C127.938 70.1129 127.696 70.3548 127.696 70.6527C127.694 70.9506 127.936 71.1925 128.236 71.1925Z" fill="#61A3C5"/>
<path d="M143.329 77.3263H171.33C171.628 77.3263 171.869 77.0845 171.869 76.7866C171.869 76.4886 171.628 76.2468 171.33 76.2468H143.329C143.031 76.2468 142.789 76.4886 142.789 76.7866C142.789 77.0845 143.031 77.3263 143.329 77.3263Z" fill="#61A3C5"/>
<path d="M127.914 77.3263H139.088C139.386 77.3263 139.628 77.0845 139.628 76.7866C139.628 76.4886 139.386 76.2468 139.088 76.2468H127.914C127.616 76.2468 127.374 76.4886 127.374 76.7866C127.374 77.0845 127.616 77.3263 127.914 77.3263Z" fill="#61A3C5"/>
<path d="M153.728 83.4602H171.327C171.625 83.4602 171.867 83.2183 171.867 82.9204C171.867 82.6225 171.625 82.3806 171.327 82.3806H153.728C153.43 82.3806 153.188 82.6225 153.188 82.9204C153.188 83.2183 153.43 83.4602 153.728 83.4602Z" fill="#61A3C5"/>
<path d="M127.914 83.4602H149.781C150.079 83.4602 150.321 83.2183 150.321 82.9204C150.321 82.6225 150.079 82.3806 149.781 82.3806H127.914C127.616 82.3806 127.374 82.6225 127.374 82.9204C127.374 83.2183 127.616 83.4602 127.914 83.4602Z" fill="#61A3C5"/>
<path d="M139.186 89.7171C139.132 89.9308 130.812 100.758 130.76 100.439C130.706 100.119 131.721 88.8103 131.721 88.8103L139.186 89.7171Z" fill="white"/>
<path d="M429.862 77.864H381.708C380.734 77.864 379.944 77.0738 379.944 76.1V52.8903C379.944 51.9165 380.734 51.1263 381.708 51.1263H429.862C430.836 51.1263 431.626 51.9165 431.626 52.8903V76.1C431.626 77.0738 430.838 77.864 429.862 77.864Z" fill="white"/>
<path d="M426.773 57.9295H383.679C383.381 57.9295 383.14 57.6876 383.14 57.3897C383.14 57.0918 383.381 56.8499 383.679 56.8499H426.773C427.071 56.8499 427.313 57.0918 427.313 57.3897C427.315 57.6876 427.073 57.9295 426.773 57.9295Z" fill="#61A3C5"/>
<path d="M411.68 64.0633H383.679C383.381 64.0633 383.14 63.8215 383.14 63.5235C383.14 63.2256 383.381 62.9838 383.679 62.9838H411.68C411.978 62.9838 412.22 63.2256 412.22 63.5235C412.22 63.8215 411.978 64.0633 411.68 64.0633Z" fill="#61A3C5"/>
<path d="M427.094 64.0633H415.92C415.622 64.0633 415.38 63.8215 415.38 63.5235C415.38 63.2256 415.622 62.9838 415.92 62.9838H427.094C427.392 62.9838 427.634 63.2256 427.634 63.5235C427.634 63.8215 427.392 64.0633 427.094 64.0633Z" fill="#61A3C5"/>
<path d="M401.281 70.1972H383.681C383.383 70.1972 383.142 69.9554 383.142 69.6575C383.142 69.3595 383.383 69.1177 383.681 69.1177H401.281C401.579 69.1177 401.82 69.3595 401.82 69.6575C401.82 69.9554 401.579 70.1972 401.281 70.1972Z" fill="#61A3C5"/>
<path d="M427.095 70.1972H405.227C404.929 70.1972 404.688 69.9554 404.688 69.6575C404.688 69.3595 404.929 69.1177 405.227 69.1177H427.095C427.393 69.1177 427.634 69.3595 427.634 69.6575C427.634 69.9554 427.393 70.1972 427.095 70.1972Z" fill="#61A3C5"/>
<path d="M415.823 76.4541C415.877 76.6678 424.197 87.4954 424.249 87.1759C424.303 86.8564 423.289 75.5473 423.289 75.5473L415.823 76.4541Z" fill="white"/>
<path d="M327.334 68.9816C327.023 68.4613 326.345 68.2929 325.805 68.5693L322.446 70.2857C322.34 70.3397 322.213 70.3202 322.129 70.2382C322.003 70.1173 322.021 69.9122 322.163 69.8129L326.746 66.6434C327.271 66.2807 327.325 65.62 326.867 65.1752C326.41 64.7305 325.604 64.6657 325.08 65.0284L320.408 68.2605C320.3 68.3361 320.153 68.3231 320.058 68.2324L319.991 68.1677C319.881 68.0619 319.879 67.887 319.985 67.7769L324.369 63.2494C324.79 62.8132 324.832 62.1159 324.423 61.6668C323.977 61.1745 323.217 61.168 322.761 61.6387L318.35 66.1943C318.245 66.3044 318.07 66.3066 317.96 66.2008L317.746 65.9935C317.647 65.8964 317.634 65.7409 317.716 65.6308L321.23 60.9025C321.593 60.4167 321.541 59.7172 321.079 59.3264C320.572 58.8967 319.816 58.9896 319.428 59.5142C319.428 59.5142 313.683 66.4361 312.696 67.4466L312.031 64.2231C312.021 63.5948 311.505 63.0939 310.874 63.1026C310.246 63.1133 309.745 63.6294 309.754 64.2598L309.018 71.5531C309.024 71.9633 309.611 72.5354 310.194 72.883C314.65 77.9115 315.378 78.6499 316.703 79.8935L321.522 74.5714C322.912 73.0363 324.57 71.7646 326.416 70.8233L326.88 70.5858C327.455 70.2814 327.673 69.5516 327.334 68.9816Z" fill="#FE9F73"/>
<path d="M268.014 267.785L252.781 267.994L252.561 253.626L267.735 251.73L268.014 267.785Z" fill="#FE9F73"/>
<path d="M283.667 270.371H252.563V264.112C252.563 264.112 254.826 261.107 258.272 262.642C258.272 262.642 263.371 266.334 267.965 261.923L279.481 266.867C279.478 266.867 283.667 268.242 283.667 270.371Z" fill="#3AA1C9"/>
<path d="M252.561 272.563H284.586C284.823 272.563 285.015 272.371 285.015 272.133V270.803C285.015 270.566 284.823 270.373 284.586 270.373H252.561V272.563Z" fill="#472A31"/>
<path d="M271.371 263.385C270.329 265.015 268.232 268.288 266.9 270.371H264.78C265.97 268.51 268.468 264.611 269.709 262.67L271.371 263.385Z" fill="#D7E4F7"/>
<path d="M270.298 270.371H268.178C269.147 268.858 271.036 265.906 272.372 263.816L274.035 264.531C272.912 266.286 271.356 268.72 270.298 270.371Z" fill="#D7E4F7"/>
<path d="M237.297 267.785L222.064 267.994L221.846 253.626L237.018 251.73L237.297 267.785Z" fill="#FE9F73"/>
<path d="M243.408 143.415C243.913 158.252 246.107 216.294 250.72 254.267C251.025 256.769 253.145 258.659 255.666 258.652C258.458 258.646 262.34 258.311 266.642 256.998C268.721 256.363 270.166 254.472 270.2 252.298L272.076 136.754C272.081 136.474 272.061 136.193 272.018 135.914L271.929 135.344C271.446 132.199 268.182 130.305 265.211 131.445L246.606 138.594C244.619 139.354 243.335 141.288 243.408 143.415Z" fill="#FF424D"/>
<path d="M218.461 140.42C218.461 140.42 217.193 211.79 220.496 255.815C220.652 257.899 222.308 259.546 224.391 259.704C227.34 259.928 231.831 259.894 236.895 258.551C238.612 258.095 239.862 256.612 240.015 254.841L248.847 152.489L254.285 124.072L218.461 140.42Z" fill="#EF3A4C"/>
<path d="M252.949 270.371H221.846V264.112C221.846 264.112 224.108 261.107 227.554 262.642C227.554 262.642 232.653 266.334 237.247 261.923L248.763 266.867C248.761 266.867 252.949 268.242 252.949 270.371Z" fill="#4CB7D8"/>
<path d="M221.846 272.563H253.871C254.108 272.563 254.3 272.371 254.3 272.133V270.803C254.3 270.566 254.108 270.373 253.871 270.373H221.846V272.563Z" fill="#683D46"/>
<path d="M240.654 263.385C239.611 265.015 237.515 268.288 236.183 270.371H234.062C235.252 268.51 237.75 264.611 238.991 262.67L240.654 263.385Z" fill="#D7E4F7"/>
<path d="M239.583 270.371H237.463C238.432 268.858 240.321 265.906 241.658 263.816L243.32 264.531C242.197 266.286 240.641 268.72 239.583 270.371Z" fill="#D7E4F7"/>
<path d="M273.174 158.198L273.348 157.954L272.431 102.877C272.431 102.877 289.339 115.026 294.406 115.259C299.473 115.492 320.425 82.1734 320.425 82.1734C316.01 71.3156 306.712 69.8107 306.712 69.8107L289.411 90.1295L269.141 70.4304C266.438 68.6729 245.661 68.2929 245.661 68.2929C245.661 68.2929 229.35 67.3947 226.649 69.1522C223.946 70.9097 206.667 100.186 205.123 113.318C203.579 126.451 205.123 134.956 214.486 136.506L217.893 136.584L218.154 158.196C218.156 158.198 237.025 162.749 273.174 158.198Z" fill="#61A3C5"/>
<path d="M306.716 69.8107L289.415 90.1295L269.145 70.4303C268.13 69.7697 264.564 69.3033 260.505 68.9795L248.324 100.068L229.933 68.2929C223.491 68.3555 221.826 69.9769 220.427 70.8881C217.724 72.6455 206.671 100.186 205.125 113.318C203.581 126.451 205.125 134.956 214.488 136.506L217.895 136.584L216.921 158.196C216.921 158.196 237.027 162.745 273.173 158.196L273.348 157.952L272.431 102.874C272.431 102.874 289.339 115.023 294.406 115.257C299.473 115.49 320.425 82.1712 320.425 82.1712C316.012 71.3155 306.716 69.8107 306.716 69.8107Z" fill="#FECC86"/>
<path d="M223.078 117.079L222.691 116.591L226.459 113.18L227.897 94.4735L228.49 94.5254L227.033 113.497L223.078 117.079Z" fill="#21111D"/>
<path d="M217.886 136.905L214.44 136.823C209.844 136.061 206.899 133.624 205.433 129.366C204.162 125.674 203.97 120.561 204.827 113.279L205.418 113.359C203.672 128.202 206.308 134.82 214.512 136.189L217.897 136.266L217.886 136.905Z" fill="#21111D"/>
<path d="M289.621 95.566L289.127 90.285L269.498 71.2097C268.06 69.8107 265.262 69.7934 265.234 69.7934V69.1543C265.362 69.1543 268.289 69.1716 269.898 70.7369L289.697 89.9784L290.215 95.5034L289.621 95.566Z" fill="#21111D"/>
<path d="M289.635 90.3455L289.194 89.9137L306.606 69.4653L306.766 69.4934C306.858 69.5085 316.062 71.2336 320.701 82.0375L320.159 82.3052C315.986 72.5873 308.035 70.4326 306.826 70.1584L289.635 90.3455Z" fill="#21111D"/>
<path d="M250.578 160.415C250.401 160.415 250.226 160.415 250.056 160.413L250.062 159.774C257.523 159.858 270.829 158.178 272.873 157.915L272.132 97.5804L272.728 97.5717L273.475 158.481L273.21 158.515C273.063 158.535 258.765 160.415 250.578 160.415Z" fill="#21111D"/>
<path d="M239.997 80.2432C236.992 78.2375 234.809 75.1285 233.853 71.4948L234.427 71.3221C235.342 74.8046 237.432 77.7798 240.312 79.7013L239.997 80.2432Z" fill="#21111D"/>
<path d="M240.849 45.3336C240.849 45.3336 245.366 43.412 249.377 44.7917C251.7 45.5905 253.241 47.797 253.241 50.254V52.6549L240.882 47.376C240.882 47.376 238.926 48.3001 239.083 48.0194C239.239 47.7387 240.849 45.3336 240.849 45.3336Z" fill="#FE9F73"/>
<path d="M253.24 49.982V60.1079C253.24 60.1079 253.391 63.7265 250.224 64.1778L250.816 69.0054C251.036 70.7996 249.963 72.5182 248.24 73.0644C247.398 73.3321 246.392 73.5264 245.25 73.5264C241.632 73.5264 239.671 70.8125 239.371 69.4566C239.069 68.1008 239.974 61.6171 239.974 61.6171L239.864 58.4325L240.276 46.0892L253.24 49.982Z" fill="#FE9F73"/>
<path d="M244.505 54.7578C244.468 54.7578 244.429 54.7449 244.401 54.7146C244.341 54.6563 244.339 54.5614 244.397 54.5009C244.418 54.4793 246.491 52.3591 248.387 53.8856C248.451 53.9374 248.462 54.0324 248.41 54.0972C248.359 54.1619 248.263 54.1727 248.199 54.1209C246.519 52.7693 244.693 54.6304 244.617 54.7103C244.585 54.7427 244.546 54.7578 244.505 54.7578Z" fill="#21111D"/>
<path d="M250.72 53.8531C250.677 53.8531 250.636 53.8359 250.606 53.8013C250.552 53.7387 250.558 53.6437 250.621 53.5897C250.681 53.5379 252.119 52.3072 253.028 53.0866C253.091 53.1406 253.099 53.2356 253.045 53.2982C252.991 53.3608 252.896 53.3695 252.834 53.3155C252.121 52.7045 250.833 53.8056 250.82 53.8186C250.789 53.8402 250.755 53.8531 250.72 53.8531Z" fill="#21111D"/>
<path d="M247.553 55.3667C247.553 55.6171 247.35 55.8179 247.102 55.8179C246.851 55.8179 246.65 55.615 246.65 55.3667C246.65 55.1162 246.853 54.9154 247.102 54.9154C247.352 54.9154 247.553 55.1162 247.553 55.3667Z" fill="black"/>
<path d="M251.91 55.3667C252.159 55.3667 252.361 55.1647 252.361 54.9154C252.361 54.6662 252.159 54.4642 251.91 54.4642C251.661 54.4642 251.459 54.6662 251.459 54.9154C251.459 55.1647 251.661 55.3667 251.91 55.3667Z" fill="black"/>
<path d="M240.85 45.176C240.85 45.176 237.02 44.9924 236.048 48.3433C235.077 51.6941 236.733 53.4646 236.765 54.4642C236.8 55.4638 236.122 62.1979 240.848 61.6949L242.124 50.5714L240.478 46.1432L240.85 45.176Z" fill="#FECC86"/>
<path d="M243.818 55.2091C243.818 56.7074 242.603 57.923 241.104 57.923C239.606 57.923 238.391 56.7074 238.391 55.2091C238.391 53.7107 239.606 52.4951 241.104 52.4951C242.603 52.4951 243.818 53.7107 243.818 55.2091Z" fill="#FE9F73"/>
<path d="M240.904 56.8737C240.34 56.8737 239.962 56.4505 239.839 56.0273C239.693 55.5264 239.861 55.0407 240.267 54.7881C240.867 54.4145 241.413 54.6542 241.692 54.8377C241.575 54.529 241.392 54.3044 241.143 54.1706C240.608 53.8769 239.945 54.0907 239.939 54.0928C239.9 54.1058 239.857 54.0842 239.844 54.0453C239.831 54.0065 239.852 53.9633 239.891 53.9504C239.921 53.9396 240.621 53.7129 241.215 54.0389C241.558 54.2267 241.789 54.5592 241.908 55.0277L241.972 55.2911L241.78 55.1011C241.752 55.0731 241.109 54.4469 240.345 54.9198C239.921 55.181 239.885 55.6603 239.982 55.9885C240.081 56.3296 240.383 56.7269 240.902 56.7269C240.906 56.7269 240.912 56.7269 240.917 56.7269C240.958 56.7269 240.992 56.7593 240.992 56.8003C240.992 56.8413 240.96 56.8758 240.919 56.8758C240.915 56.8737 240.91 56.8737 240.904 56.8737Z" fill="#F07162"/>
<path d="M242.886 61.1054C242.886 61.1054 243.097 67.1615 250.662 67.7402L250.226 64.1799C250.226 64.1799 245.321 65.1666 242.886 61.1054Z" fill="#F07162"/>
<path d="M249.148 58.4174C249.116 58.4174 249.088 58.398 249.077 58.3656C249.064 58.3267 249.086 58.2835 249.124 58.2706L250.636 57.7719L250.159 54.2159C250.152 54.1749 250.182 54.136 250.223 54.1317C250.264 54.1252 250.303 54.1555 250.308 54.1965L250.802 57.8776L249.172 58.4174C249.166 58.4174 249.157 58.4174 249.148 58.4174Z" fill="#F07162"/>
<path d="M239.863 62.4591L240.388 57.3551L241.655 57.4954V62.6059L239.863 62.4591Z" fill="#FE9F73"/>
<path d="M241.558 45.0745C241.558 45.0745 240.67 47.1925 242.126 50.7269C243.581 54.2613 238.391 49.4099 238.391 49.4099C238.391 49.4099 238.751 44.2368 241.558 45.0745Z" fill="#FECC86"/>
<path d="M242.128 50.7268C242.128 50.7268 253.652 50.0446 254.362 47.3436C255.073 44.6448 252.363 44.5736 252.363 44.5736C252.363 44.5736 252.871 40.7369 249.39 41.8748C245.91 43.0126 239.46 42.8636 237.646 46.0892C235.83 49.3148 242.128 50.7268 242.128 50.7268Z" fill="#FECC86"/>
<path d="M241.889 52.6549L242.385 54.7579L242.886 54.1296C242.886 54.1296 243.871 51.109 243.19 49.6603C242.51 48.2116 239.788 50.2951 239.788 50.2951L241.889 52.6549Z" fill="#FECC86"/>
<path d="M239.393 66.8355L246.295 72.0712L250.662 67.7402L253.575 68.5585L250.662 76.3203L246.489 73.7596L242.184 76.6009L236.398 68.0662L239.393 66.8355Z" fill="#EDFCFB"/>
<path d="M251.143 59.6891C251.096 59.6761 247.991 59.4062 247.991 59.4062C247.991 59.4062 248.3 60.7168 249.453 60.8205C250.608 60.9241 251.143 59.6891 251.143 59.6891Z" fill="#FBFDFC"/>
<path d="M267.152 110.15H267.079H259.426L261.362 132.937H267.079H267.152H273.077L274.806 110.15H267.152Z" fill="#49263E"/>
<path d="M272.763 106.154H267.154H267.081H261.472C260.815 106.154 260.282 106.692 260.282 107.352H267.081H267.154H273.952C273.952 106.689 273.419 106.154 272.763 106.154Z" fill="#CE1D37"/>
<path d="M274.635 107.968C274.559 107.609 274.246 107.352 273.884 107.352H267.154H267.081H260.352C259.989 107.352 259.674 107.609 259.6 107.968L258.961 111.014C258.86 111.495 259.225 111.949 259.713 111.949H267.081H267.154H274.523C275.011 111.949 275.375 111.495 275.274 111.014L274.635 107.968Z" fill="#EF3A4C"/>
<path d="M259.806 117.148L260.307 126.41H267.068H267.163H273.925L274.426 117.148H267.163H267.068H259.806Z" fill="#EF3A4C"/>
<path d="M273.925 126.57H260.153L259.644 117.154C259.639 117.066 259.706 116.99 259.797 116.984C259.886 116.979 259.961 117.046 259.965 117.135L260.458 126.246H273.925C274.013 126.246 274.087 126.317 274.087 126.408C274.087 126.499 274.015 126.57 273.925 126.57Z" fill="#21111D"/>
<path d="M270.742 114.902C270.716 114.902 270.688 114.896 270.662 114.881C270.585 114.838 270.559 114.738 270.602 114.661L271.917 112.34C271.96 112.262 272.059 112.236 272.137 112.279C272.215 112.322 272.241 112.422 272.197 112.499L270.883 114.82C270.852 114.874 270.798 114.902 270.742 114.902Z" fill="#21111D"/>
<path d="M270.962 116.235C270.934 116.235 270.906 116.228 270.882 116.213C270.805 116.168 270.779 116.07 270.824 115.993L272.014 113.95C272.059 113.873 272.156 113.847 272.234 113.892C272.312 113.937 272.337 114.034 272.292 114.112L271.103 116.155C271.072 116.206 271.018 116.235 270.962 116.235Z" fill="#21111D"/>
<path d="M269.526 123.845C272.253 121.272 269.397 120.838 269.397 120.838C270.727 119.296 270.418 118.575 269.93 118.245C269.572 118.003 269.123 117.975 268.727 118.139C267.473 118.661 263.652 120.268 261.316 121.423C259.656 121.298 260.185 118.299 260.927 116.761C261.31 115.969 261.335 114.663 259.535 115.98C258.063 117.055 255.85 120.598 255.85 120.598L246.597 119.646L247.976 133.306C247.976 133.306 258.537 133.149 260.129 133.136C261.72 133.123 267.05 131.18 268.658 129.679C271.579 126.954 269.742 126.816 269.742 126.816C272.529 123.683 269.526 123.845 269.526 123.845Z" fill="#FE9F73"/>
<path d="M266.057 123.094C265.977 123.1 265.897 123.053 265.864 122.969C265.823 122.865 265.871 122.744 265.968 122.701C267.337 122.096 269.267 120.684 269.286 120.671C269.373 120.607 269.493 120.633 269.552 120.725C269.612 120.818 269.588 120.946 269.502 121.01C269.422 121.069 267.52 122.459 266.113 123.081C266.095 123.087 266.076 123.092 266.057 123.094Z" fill="#F07162"/>
<path d="M266.245 125.683C266.154 125.691 266.07 125.629 266.046 125.531C266.018 125.421 266.078 125.309 266.182 125.281C267.922 124.78 269.403 123.69 269.416 123.679C269.502 123.614 269.623 123.638 269.681 123.731C269.742 123.824 269.72 123.951 269.634 124.016C269.571 124.061 268.088 125.158 266.279 125.678C266.268 125.68 266.258 125.683 266.245 125.683Z" fill="#F07162"/>
<path d="M266.886 128.599C266.798 128.606 266.714 128.548 266.688 128.455C266.657 128.347 266.716 128.232 266.815 128.2C268.307 127.721 269.613 126.667 269.626 126.656C269.71 126.587 269.831 126.607 269.894 126.695C269.958 126.786 269.941 126.913 269.857 126.982C269.801 127.028 268.482 128.092 266.923 128.593C266.912 128.595 266.899 128.597 266.886 128.599Z" fill="#F07162"/>
<path d="M241.278 114.335L250.587 114.974C250.587 114.974 252.47 121.334 250.207 134.228C249.987 135.48 249.525 137.62 249.525 137.62C249.525 137.62 240.071 138.427 238.588 135.137C237.655 133.071 239.693 124.148 239.693 124.148L241.278 114.335Z" fill="#FECC86"/>
<path d="M249.755 137.948L217.886 136.905L217.903 136.266L249.293 137.292C249.742 135.301 252.616 121.911 250.375 115.28L226.726 113.657L226.765 113.018L250.796 114.667L250.865 114.857C253.475 122.107 249.965 137.065 249.814 137.698L249.755 137.948Z" fill="#21111D"/>
<path d="M259.805 114.743L260.075 117.148H261.886L261.625 114.566L259.805 114.743Z" fill="#49263E"/>
<path d="M260.075 117.148L260.395 121.546C260.395 121.546 261.077 121.764 263.117 120.574C265.157 119.385 261.766 117.148 261.766 117.148H260.075Z" fill="#EF3A4C"/>
<path d="M328.732 35.3285C328.732 35.3285 332.349 37.1939 330.539 44.4893L329.173 43.7833L329.635 39.9078L328.732 35.3285Z" fill="black"/>
<path d="M316.065 39.8538V50.5455C316.065 50.5455 315.916 54.1597 319.057 54.611L318.47 59.4321C318.252 61.2241 319.316 62.9406 321.028 63.4847C321.863 63.7502 322.863 63.9467 323.994 63.9467C327.584 63.9467 329.53 61.2371 329.83 59.8812C330.13 58.5253 329.232 52.0503 329.232 52.0503L329.342 48.8679L328.934 36.5397L316.065 39.8538Z" fill="#FE9F73"/>
<path d="M324.735 45.1997C324.771 45.1997 324.81 45.1867 324.838 45.1586C324.899 45.1003 324.901 45.0053 324.843 44.9449C324.821 44.9233 322.764 42.8052 320.883 44.3295C320.819 44.3814 320.808 44.4764 320.862 44.5411C320.914 44.6059 321.009 44.6167 321.071 44.5649C322.738 43.2133 324.551 45.0744 324.627 45.1543C324.657 45.1846 324.696 45.1997 324.735 45.1997Z" fill="black"/>
<path d="M318.566 44.2972C318.607 44.2972 318.651 44.2799 318.679 44.2454C318.733 44.1828 318.726 44.0878 318.664 44.0338C318.603 43.982 317.176 42.7535 316.274 43.5307C316.211 43.5847 316.205 43.6797 316.256 43.7423C316.31 43.8049 316.405 43.8136 316.468 43.7596C317.174 43.1486 318.454 44.2497 318.467 44.2605C318.497 44.2843 318.532 44.2972 318.566 44.2972Z" fill="black"/>
<path d="M321.71 45.8085C321.71 46.059 321.911 46.2598 322.159 46.2598C322.407 46.2598 322.608 46.0568 322.608 45.8085C322.608 45.5581 322.407 45.3573 322.159 45.3573C321.911 45.3573 321.71 45.5602 321.71 45.8085Z" fill="black"/>
<path d="M316.938 45.3573C316.938 45.6077 317.139 45.8085 317.388 45.8085C317.636 45.8085 317.837 45.6056 317.837 45.3573C317.837 45.1068 317.636 44.906 317.388 44.906C317.139 44.906 316.938 45.1068 316.938 45.3573Z" fill="black"/>
<path d="M326.947 45.9661C326.947 47.4624 328.154 48.6758 329.642 48.6758C331.129 48.6758 332.336 47.4624 332.336 45.9661C332.336 44.4699 331.129 43.2565 329.642 43.2565C328.154 43.2565 326.947 44.4678 326.947 45.9661Z" fill="#FE9F73"/>
<path d="M329.839 47.6264C330.398 47.6264 330.771 47.2033 330.894 46.7801C331.039 46.2792 330.873 45.7934 330.469 45.5408C329.873 45.1673 329.331 45.4069 329.055 45.5904C329.171 45.2838 329.353 45.0593 329.599 44.9233C330.13 44.6297 330.789 44.8434 330.795 44.8456C330.834 44.8585 330.877 44.8369 330.89 44.7981C330.903 44.7592 330.881 44.716 330.842 44.7031C330.812 44.6923 330.117 44.4656 329.528 44.7916C329.189 44.9794 328.958 45.3119 328.841 45.7783L328.776 46.0395L328.966 45.8495C328.992 45.8215 329.633 45.1953 330.391 45.6682C330.81 45.9294 330.847 46.4066 330.752 46.7369C330.652 47.078 330.355 47.4753 329.841 47.4753C329.836 47.4753 329.83 47.4753 329.826 47.4753C329.785 47.4753 329.752 47.5077 329.75 47.5487C329.75 47.5897 329.782 47.6243 329.823 47.6243C329.828 47.6265 329.834 47.6264 329.839 47.6264Z" fill="#F07162"/>
<path d="M315.543 48.8442C315.543 48.8442 314.565 56.0835 319.343 56.3425C326.178 56.7096 326.841 52.7844 327.247 49.5718L327.316 42.9413L327.096 41.0176C326.612 41.5682 326.316 42.2569 326.252 42.9888C326.109 44.5779 325.759 48.8614 325.366 49.0514C324.809 49.3192 316.608 48.1468 315.543 48.8442Z" fill="black"/>
<path d="M320.125 48.8549C320.158 48.8549 320.186 48.8355 320.196 48.8031C320.209 48.7643 320.188 48.7211 320.149 48.7081L318.649 48.2094L319.121 44.6578C319.128 44.6167 319.098 44.5779 319.057 44.5736C319.016 44.5671 318.979 44.5973 318.972 44.6383L318.482 48.3152L320.099 48.8528C320.11 48.855 320.119 48.8549 320.125 48.8549Z" fill="#F07162"/>
<path d="M321.286 50.3231C321.241 50.3145 318.324 50.2454 318.324 50.2454C318.324 50.2454 318.691 51.4587 319.775 51.4868C320.859 51.5148 321.286 50.3231 321.286 50.3231Z" fill="#FBFDFC"/>
<path d="M318.151 59.4429L318.624 56.7139C318.624 56.7139 326.692 56.5044 329.891 55.7229L330.33 59.5357C330.33 59.5357 323.169 62.8347 318.151 59.4429Z" fill="#CEE4EF"/>
<path d="M327.109 41.1406L328.461 39.9078L329.86 43.2716C329.86 43.2716 328.13 43.5566 328.1 45.3573C328.07 47.1558 329.041 49.9647 325.926 54.0021C322.811 58.0374 326.176 47.9783 326.207 47.6264C326.239 47.2767 327.109 41.1406 327.109 41.1406Z" fill="black"/>
<path d="M328.733 35.3285C327.29 33.8971 322.286 33.0809 318.718 35.2313V35.227C314.652 37.2155 315.93 41.2637 316.064 41.3846L316.116 41.3436C316.097 41.4364 316.077 41.5314 316.064 41.6243C316.064 41.6243 316.235 41.3522 316.6 40.9744L318.197 39.7502C319.093 39.245 320.294 38.811 321.85 38.7096C323.394 38.6081 324.741 38.6945 325.848 39.0356C326.142 39.9532 326.379 41.7733 326.036 45.3573C325.512 50.824 327.899 44.1935 328.769 41.6523C328.955 42.1273 329.091 42.6606 329.158 43.2716C329.156 43.2716 331.623 38.1957 328.733 35.3285Z" fill="black"/>
<path d="M316.064 42.8571C316.064 42.8571 315.958 40.6635 316.062 40.182C316.166 39.7006 321.051 38.3209 323.726 38.688C326.401 39.055 321.215 42 321.157 42C321.099 42.0021 316.064 42.8571 316.064 42.8571Z" fill="#FE9F73"/>
<path d="M325.337 39.2515L327.921 36.8463L325.488 40.3634L325.337 39.2515Z" fill="#FE9F73"/>
<path d="M325.336 34.5167C325.336 34.5167 324.81 29.3306 327.696 30.4598C330.581 31.5869 331.077 33.9769 328.463 35.5552C325.848 37.1313 325.336 34.5167 325.336 34.5167Z" fill="black"/>
<path d="M333.519 268.296L346.537 268.476L346.725 256.195L333.756 254.576L333.519 268.296Z" fill="#FE9F73"/>
<path d="M320.141 270.507H346.723V265.157C346.723 265.157 344.789 262.59 341.846 263.901C341.846 263.901 337.487 267.057 333.562 263.285L323.72 267.511C323.72 267.511 320.141 268.687 320.141 270.507Z" fill="#4C222E"/>
<path d="M346.725 272.379H319.389C319.166 272.379 318.987 272.2 318.987 271.978V270.909C318.987 270.686 319.166 270.507 319.389 270.507H346.725V272.379Z" fill="#8CD2F9"/>
<path d="M304.05 268.296L317.068 268.476L317.256 256.195L304.287 254.576L304.05 268.296Z" fill="#FE9F73"/>
<path d="M290.672 270.507H317.254V265.157C317.254 265.157 315.32 262.59 312.377 263.901C312.377 263.901 308.019 267.057 304.094 263.285L294.251 267.511C294.251 267.511 290.672 268.687 290.672 270.507Z" fill="#4C222E"/>
<path d="M317.256 272.379H289.92C289.698 272.379 289.519 272.2 289.519 271.978V270.909C289.519 270.686 289.698 270.507 289.92 270.507H317.256V272.379Z" fill="#8CD2F9"/>
<path d="M303.692 157.962C305.68 160.519 306.196 157.999 306.196 157.999C307.405 159.262 308.018 159.023 308.32 158.604C308.541 158.297 308.588 157.9 308.474 157.539C308.109 156.397 306.982 152.915 306.149 150.779C306.343 149.309 308.804 149.931 310.039 150.671C310.676 151.051 311.759 151.142 310.764 149.471C309.95 148.106 307.129 145.958 307.129 145.958L308.422 137.773L297.004 138.306C297.004 138.306 296.561 147.711 296.486 149.128C296.41 150.544 297.733 155.385 298.893 156.894C300.995 159.631 301.211 158.003 301.211 158.003C303.664 160.644 303.692 157.962 303.692 157.962Z" fill="#FE9F73"/>
<path d="M304.504 154.914C304.502 154.843 304.547 154.774 304.618 154.75C304.707 154.72 304.804 154.767 304.834 154.856C305.262 156.106 306.33 157.893 306.341 157.911C306.389 157.991 306.363 158.096 306.283 158.144C306.201 158.191 306.097 158.166 306.05 158.086C306.004 158.01 304.953 156.248 304.515 154.966C304.508 154.948 304.504 154.931 304.504 154.914Z" fill="#F07162"/>
<path d="M302.345 154.951C302.343 154.871 302.399 154.797 302.481 154.78C302.574 154.761 302.662 154.821 302.682 154.914C303.003 156.488 303.828 157.859 303.837 157.874C303.886 157.954 303.86 158.06 303.781 158.109C303.701 158.159 303.595 158.133 303.545 158.053C303.511 157.995 302.682 156.62 302.347 154.985C302.345 154.972 302.345 154.961 302.345 154.951Z" fill="#F07162"/>
<path d="M299.888 155.374C299.886 155.296 299.94 155.223 300.019 155.205C300.11 155.184 300.203 155.24 300.225 155.333C300.542 156.684 301.345 157.9 301.354 157.913C301.405 157.991 301.384 158.096 301.306 158.15C301.228 158.202 301.123 158.181 301.069 158.103C301.034 158.051 300.222 156.823 299.89 155.413C299.89 155.398 299.888 155.385 299.888 155.374Z" fill="#F07162"/>
<path d="M295.95 141.837L296.153 145.816C296.153 145.816 298.228 147.202 302.043 147.098L301.084 141.837H295.95Z" fill="#E2F2F1"/>
<path d="M327.057 129.724C327.057 129.724 325.33 211.174 319.384 258.181C319.384 258.181 311.465 260.673 301.506 256.016L301.083 135.968L299.646 117.983L327.057 129.724Z" fill="#3AAAA4"/>
<path d="M347.958 130.512C347.958 130.512 351.44 210.805 347.543 258.119C347.543 258.119 340.145 262.78 329.998 258.745L317.729 143.385L312.52 112.519L347.958 130.512Z" fill="#7FC6A6"/>
<path d="M337.498 260.565C343.093 260.565 347.599 258.395 347.664 258.365L347.787 258.304L347.813 258.168C351.146 240.121 349.02 151.187 348.998 150.291C348.994 150.142 348.873 150.024 348.724 150.024C348.722 150.024 348.72 150.024 348.717 150.024C348.566 150.028 348.447 150.153 348.45 150.304C348.471 151.198 350.587 239.622 347.299 257.929C346.187 258.434 337.819 261.996 330.112 258.494C329.976 258.432 329.812 258.492 329.749 258.63C329.687 258.768 329.747 258.93 329.885 258.993C332.446 260.157 335.075 260.565 337.498 260.565Z" fill="black"/>
<path d="M313.683 259.069C315.488 259.069 317.422 258.892 319.443 258.451C319.589 258.419 319.684 258.272 319.652 258.125C319.62 257.976 319.471 257.886 319.326 257.916C310.231 259.904 302.875 256.411 301.781 255.852L301.36 147.094C301.36 146.943 301.237 146.822 301.086 146.822C300.934 146.822 300.811 146.945 300.814 147.096L301.237 256.18L301.377 256.258C301.437 256.292 306.528 259.069 313.683 259.069Z" fill="black"/>
<path d="M304.78 60.6973C304.78 60.6973 298.284 63.3486 297.2 68.4915C296.116 73.6343 293.301 135.726 295.25 141.837H304.78V60.6973Z" fill="#4C222E"/>
<path d="M351.317 96.4858L351.829 136.247C351.829 136.247 321.017 145.023 301.086 134.558C301.086 134.558 304.573 64.67 305.199 61.5912C305.937 57.964 325.818 57.6682 334.115 58.5577C334.115 58.5577 346.971 58.236 353.845 62.0316L351.317 96.4858Z" fill="#E2F2F1"/>
<path d="M351.826 85.8654L351.176 146.82C351.176 146.82 335.423 152.874 327.463 149.689C327.463 149.689 327.51 60.8463 330.76 58.1367C331.161 58.1475 339.337 58.3051 345.175 59.037C351.014 59.7689 351.826 85.8654 351.826 85.8654Z" fill="#4C222E"/>
<path d="M317.578 58.1367C317.578 58.1367 315.933 137.842 314.309 149.689C314.309 149.689 307.686 150.145 299.24 147.105C299.24 147.105 300.76 63.9553 302.941 61.7337C305.119 59.5142 317.578 58.1367 317.578 58.1367Z" fill="#4C222E"/>
<path d="M329.713 58.2468C329.713 58.2468 319.404 58.0028 317.677 58.3288C317.677 58.3288 319.035 62.39 319.257 62.5519C319.479 62.7138 326.157 64.074 326.157 64.074C326.157 64.074 328.435 62.7333 328.536 62.2777C328.637 61.82 329.713 58.2468 329.713 58.2468Z" fill="#E2F2F1"/>
<path d="M351.827 105.686C351.978 105.686 352.101 105.562 352.101 105.411V92.4505C352.101 92.2994 351.978 92.1763 351.827 92.1763C351.676 92.1763 351.553 92.2994 351.553 92.4505V105.411C351.553 105.562 351.676 105.686 351.827 105.686Z" fill="black"/>
<path d="M327.465 149.963C327.616 149.963 327.739 149.84 327.739 149.689C327.603 93.1263 329.151 73.4681 329.166 73.276C329.179 73.1248 329.067 72.9931 328.916 72.9802C328.769 72.9716 328.633 73.0795 328.62 73.2306C328.605 73.4228 327.055 93.096 327.191 149.689C327.191 149.84 327.314 149.963 327.465 149.963Z" fill="black"/>
<path d="M299.24 147.379C299.242 147.379 299.244 147.379 299.246 147.379C299.397 147.375 299.518 147.249 299.514 147.098C298.978 122.332 303.333 68.7743 303.376 68.2367C303.389 68.0856 303.277 67.9539 303.126 67.9409C302.966 67.9301 302.843 68.0402 302.83 68.1914C302.787 68.729 298.43 122.314 298.966 147.109C298.968 147.26 299.091 147.379 299.24 147.379Z" fill="black"/>
<path d="M317.222 74.1223C317.371 74.1223 317.491 74.0035 317.496 73.8546L317.858 57.8387L317.556 57.8625C316.999 57.9057 303.847 58.983 299.963 63.4998C299.864 63.6142 299.877 63.7869 299.991 63.8862C300.106 63.9855 300.279 63.9726 300.378 63.8582C303.8 59.879 315.281 58.6289 317.297 58.4368L316.95 73.8438C316.947 73.9949 317.066 74.1201 317.217 74.1245C317.219 74.1223 317.219 74.1223 317.222 74.1223Z" fill="black"/>
<path d="M372.795 115.429C371.12 106.933 374.788 101.564 377.53 98.7333C378.475 101.449 379.151 104.189 379.438 106.92C379.82 110.587 377.849 115.436 374.82 120.497C373.933 119.238 373.221 117.584 372.795 115.429Z" fill="#FEC786"/>
<path d="M350.982 65.6567C350.926 65.6567 350.87 65.6308 350.833 65.5833C349.035 63.1867 346.099 62.213 346.069 62.2022C345.971 62.1698 345.917 62.0662 345.95 61.9669C345.982 61.8697 346.086 61.8157 346.183 61.8481C346.308 61.8892 349.259 62.865 351.131 65.3588C351.194 65.4408 351.177 65.5574 351.094 65.62C351.06 65.6459 351.021 65.6567 350.982 65.6567Z" fill="#21111D"/>
<path d="M350.631 67.3796C350.575 67.3796 350.518 67.3537 350.482 67.3062C348.683 64.9096 345.747 63.9359 345.717 63.9251C345.62 63.8927 345.566 63.7891 345.598 63.6898C345.631 63.5926 345.734 63.5386 345.831 63.571C345.957 63.6121 348.908 64.588 350.78 67.0817C350.842 67.1637 350.825 67.2803 350.743 67.3429C350.711 67.3688 350.67 67.3796 350.631 67.3796Z" fill="#21111D"/>
<path d="M343.065 259.904C343.214 259.904 343.337 259.783 343.339 259.634L343.821 227.424C343.823 227.272 343.702 227.147 343.551 227.145C343.549 227.145 343.549 227.145 343.547 227.145C343.398 227.145 343.275 227.266 343.272 227.415L342.791 259.626C342.789 259.777 342.91 259.902 343.061 259.904C343.063 259.904 343.063 259.904 343.065 259.904Z" fill="black"/>
<path d="M313.353 259.071C313.497 259.071 313.618 258.959 313.627 258.812L315.432 227.432C315.44 227.281 315.326 227.151 315.173 227.143C315.022 227.128 314.892 227.249 314.883 227.402L313.079 258.782C313.07 258.933 313.184 259.062 313.338 259.071C313.342 259.071 313.346 259.071 313.353 259.071Z" fill="black"/>
<path d="M372.883 122.874L323.561 122.706L323.792 92.4468L373.114 92.6174L372.883 122.874Z" fill="#8CD2F9"/>
<path d="M335.916 122.747L323.561 122.706L323.792 92.4468L336.147 92.49L335.916 122.747Z" fill="#3AA1C9"/>
<path d="M340.755 99.2752L330.943 99.2428L330.961 96.9434L340.775 96.9758L340.755 99.2752Z" fill="#D7E4F7"/>
<path d="M340.622 116.764L330.81 116.729L330.827 114.432L340.641 114.464L340.622 116.764Z" fill="#D7E4F7"/>
<g opacity="0.5">
<g opacity="0.5">
<g opacity="0.5">
<path opacity="0.5" d="M370.441 106.746L352.774 106.683L352.779 106.191L370.445 106.251L370.441 106.746Z" fill="#D7E4F7"/>
</g>
</g>
</g>
<g opacity="0.5">
<g opacity="0.5">
<g opacity="0.5">
<path opacity="0.5" d="M370.427 108.514L352.761 108.453L352.765 107.961L370.429 108.022L370.427 108.514Z" fill="#D7E4F7"/>
</g>
</g>
</g>
<path d="M353.459 123.081C353.456 123.081 353.459 123.081 353.459 123.081L323.286 122.977L323.519 92.4462C323.521 92.295 323.642 92.1741 323.793 92.1741H323.796C323.947 92.1763 324.068 92.2994 324.068 92.4505L323.839 122.433L353.461 122.535C353.612 122.535 353.733 122.658 353.733 122.809C353.731 122.958 353.608 123.081 353.459 123.081Z" fill="black"/>
<path d="M372.945 114.848C372.792 114.846 372.671 114.723 372.671 114.572L372.837 92.8866L341.788 92.7808C341.636 92.7808 341.516 92.6578 341.516 92.5066C341.516 92.3555 341.639 92.2346 341.79 92.2346L373.387 92.3425L373.217 114.576C373.217 114.728 373.096 114.848 372.945 114.848Z" fill="black"/>
<path d="M350.057 104.941C349.983 104.941 349.908 104.91 349.854 104.852L347.708 102.49C347.606 102.378 347.615 102.205 347.725 102.104C347.837 102.002 348.01 102.011 348.111 102.121L350.257 104.483C350.359 104.595 350.35 104.768 350.24 104.869C350.188 104.919 350.124 104.941 350.057 104.941Z" fill="black"/>
<path d="M349.808 106.903C349.739 106.903 349.668 106.877 349.614 106.823L347.466 104.664C347.36 104.556 347.36 104.384 347.466 104.278C347.574 104.172 347.747 104.172 347.853 104.278L350.001 106.437C350.106 106.545 350.106 106.717 350.001 106.823C349.949 106.877 349.878 106.903 349.808 106.903Z" fill="black"/>
<path d="M336.152 153.679C332.942 154.106 334.341 151.95 334.341 151.95C332.595 152.001 332.325 151.401 332.402 150.892C332.459 150.518 332.707 150.201 333.039 150.026C334.099 149.469 337.344 147.776 339.436 146.837C340.328 145.652 338.136 144.369 336.74 144.03C336.019 143.855 335.183 143.158 337.063 142.666C338.601 142.264 342.117 142.711 342.117 142.711L346.934 135.97L354.699 144.36C354.699 144.36 348.419 151.375 347.48 152.437C346.541 153.502 342.202 156.022 340.319 156.285C336.899 156.76 337.888 155.449 337.888 155.449C334.291 155.609 336.152 153.679 336.152 153.679Z" fill="#FE9F73"/>
<path d="M337.711 150.935C337.763 150.885 337.778 150.805 337.743 150.736C337.702 150.652 337.599 150.617 337.514 150.661C336.334 151.25 334.317 151.777 334.298 151.783C334.207 151.807 334.153 151.9 334.175 151.991C334.198 152.081 334.291 152.137 334.382 152.114C334.466 152.092 336.452 151.572 337.666 150.967C337.685 150.959 337.7 150.948 337.711 150.935Z" fill="#F07162"/>
<path d="M339.224 152.476C339.283 152.42 339.293 152.33 339.246 152.261C339.194 152.183 339.088 152.161 339.008 152.215C337.674 153.111 336.124 153.511 336.109 153.515C336.018 153.539 335.962 153.631 335.986 153.722C336.01 153.813 336.103 153.869 336.193 153.845C336.258 153.828 337.815 153.429 339.198 152.498C339.209 152.492 339.218 152.483 339.224 152.476Z" fill="#F07162"/>
<path d="M340.679 154.499C340.735 154.443 340.748 154.357 340.703 154.286C340.653 154.206 340.548 154.182 340.468 154.232C339.295 154.972 337.868 155.274 337.853 155.279C337.76 155.298 337.702 155.389 337.722 155.48C337.741 155.572 337.832 155.631 337.922 155.611C337.983 155.598 339.425 155.292 340.649 154.519C340.662 154.517 340.671 154.508 340.679 154.499Z" fill="#F07162"/>
<path d="M340.145 58.7391C340.145 58.7391 353.537 57.5171 360.218 68.5908C366.324 78.7081 377.977 92.9233 379.439 106.92C380.62 118.234 359.389 140.787 353.845 146.178L344.029 135.711C344.029 135.711 359.655 110.925 360.87 107.868C361.976 105.087 339.115 74.9276 339.115 74.9276L340.145 58.7391Z" fill="#4C222E"/>
<path d="M353.607 145.926L351.498 148.281C351.498 148.281 343.633 141.5 343.065 140.606C343.201 140.47 345.432 137.208 345.432 137.208L353.607 145.926Z" fill="#E2F2F1"/>
<path d="M372.798 88.7196C372.85 88.7196 372.9 88.7045 372.947 88.6765C373.075 88.5944 373.111 88.4239 373.029 88.2965L358.291 65.5012C350.754 57.4415 341.527 58.5102 341.436 58.5232C341.287 58.5426 341.179 58.6786 341.199 58.8298C341.218 58.9788 341.358 59.0846 341.505 59.0673C341.596 59.0565 350.54 58.0309 357.874 65.8596L372.569 88.5966C372.619 88.6743 372.708 88.7196 372.798 88.7196Z" fill="black"/>
<path d="M366.211 109.855C366.362 109.855 366.485 109.731 366.485 109.58C366.485 109.429 366.362 109.306 366.211 109.306C364.542 109.306 361.68 107.654 361.114 107.318C360.205 103.606 347.341 85.4789 346.788 84.6995C346.699 84.5764 346.529 84.5462 346.406 84.6347C346.283 84.7232 346.252 84.8938 346.341 85.0168C346.477 85.209 359.989 104.25 360.603 107.54L360.624 107.659L360.728 107.724C360.868 107.812 364.208 109.855 366.211 109.855Z" fill="black"/>
<path d="M353.845 146.453C353.909 146.453 353.972 146.431 354.024 146.386C354.138 146.286 354.149 146.114 354.05 145.999C351.811 143.43 345.44 136.787 344.376 135.679C349.835 127.291 361.142 108.034 361.144 107.493C361.144 107.341 361.023 107.218 360.872 107.218C360.74 107.218 360.628 107.313 360.604 107.439C360.284 108.287 349.684 126.55 343.801 135.562L343.683 135.746L343.834 135.903C343.907 135.981 351.215 143.579 353.642 146.362C353.691 146.42 353.767 146.453 353.845 146.453Z" fill="black"/>
<path d="M368.506 272.379H372.219L365.52 178.087H358.094L368.506 272.379Z" fill="#FEC786"/>
<path d="M210.421 272.379H206.708L213.407 178.087H220.834L210.421 272.379Z" fill="#FEC786"/>
<path d="M188.482 165.817C188.545 165.215 188.102 164.673 187.504 164.571L183.786 163.934C183.67 163.915 183.579 163.822 183.56 163.706C183.532 163.533 183.668 163.38 183.843 163.386L189.41 163.591C190.047 163.615 190.488 163.118 190.386 162.488C190.285 161.857 189.68 161.322 189.041 161.298L183.363 161.089C183.232 161.085 183.122 160.987 183.1 160.856L183.085 160.763C183.061 160.612 183.163 160.469 183.314 160.445L189.536 159.446C190.134 159.349 190.585 158.813 190.526 158.211C190.464 157.55 189.857 157.088 189.212 157.192L182.951 158.198C182.8 158.222 182.657 158.12 182.634 157.969L182.586 157.675C182.565 157.539 182.647 157.405 182.78 157.367L188.426 155.683C189.007 155.51 189.384 154.92 189.248 154.329C189.099 153.681 188.439 153.303 187.813 153.489C187.813 153.489 179.065 155.594 177.672 155.81L179.069 152.831C179.438 152.321 179.324 151.608 178.815 151.241C178.305 150.872 177.593 150.987 177.226 151.496L172.269 156.896C172.029 157.228 172.157 158.038 172.416 158.666C172.973 165.362 173.113 166.387 173.43 168.179L180.477 166.802C182.511 166.404 184.598 166.381 186.64 166.73L187.154 166.819C187.8 166.931 188.411 166.478 188.482 165.817Z" fill="#FE9F73"/>
<path d="M148.383 156.969L173.541 153.331C173.541 153.331 177.081 164.306 176.35 170.412C176.35 170.412 152.975 176.723 148.072 176.099C143.17 175.475 138.172 168.458 138.172 168.458C138.172 168.458 137.395 131.888 138.126 132.453C138.86 133.017 148.383 156.969 148.383 156.969Z" fill="#EF3A4C"/>
<path d="M194.944 267.506L175.997 265.967L175.803 261.983L175.617 247.934L195.181 249.921L194.944 267.506Z" fill="#FE9F73"/>
<path d="M143.838 168.635C143.838 168.635 184.706 173.762 190.419 181.086C193.236 184.698 198.975 233.141 196.593 253.293C196.593 253.293 181.995 254.297 175.013 252.607L173.314 203.469L141.932 193.978L125.82 169.222L143.838 168.635Z" fill="#258D8C"/>
<path d="M185.013 253.848C179.087 253.848 174.993 252.877 174.952 252.866L174.754 252.818L173.035 203.132L175.229 204.898L174.892 205.315L173.609 204.283L175.274 252.389C176.183 252.585 180.138 253.367 185.531 253.308L185.535 253.844C185.36 253.848 185.185 253.848 185.013 253.848Z" fill="#21111D"/>
<path d="M181.596 272.379L207.466 272.373C207.699 272.336 207.891 272.295 208.029 272.25C209.69 271.721 209.828 270.751 209.75 270.19C209.716 269.942 209.571 269.721 209.357 269.583L195.065 260.329L190.344 262.419C188.841 263.089 187.239 263.514 185.599 263.672C182.248 263.993 176.872 264.168 175.804 262.087L175.972 270.075C175.974 270.073 175.193 272.442 181.596 272.379Z" fill="#EF3A4C"/>
<path d="M140.481 268.54H124.678V214.478H121.168V268.54H105.775C103.627 268.54 101.885 270.283 101.885 272.429H121.168H124.678H144.37C144.37 270.283 142.63 268.54 140.481 268.54Z" fill="#4C222E"/>
<path d="M77.2217 130.821H113.543L132.757 214.478L91.1358 210.138L77.2217 130.821Z" fill="#FEC786"/>
<path d="M160.419 205.956C160.419 205.956 112.686 205.956 98.4414 205.956C96.1421 205.956 94.1711 204.315 93.7544 202.055L81.0882 133.481C80.7471 131.639 78.9466 130.435 77.1029 130.845C75.3455 131.233 74.2488 132.995 74.5748 134.766L88.9228 212.45C89.0351 213.053 89.3028 213.584 89.6784 214.016C90.6024 215.73 92.4137 216.898 94.4971 216.898H160.419C163.439 216.898 165.89 214.45 165.89 211.427C165.89 208.406 163.439 205.956 160.419 205.956Z" fill="#F99247"/>
<path d="M98.4412 206.224C96.0146 206.224 93.9335 204.492 93.4909 202.104L80.8247 133.531C80.6735 132.708 80.2051 132.002 79.5077 131.54C78.8104 131.078 77.9771 130.925 77.1589 131.106C77.0164 131.139 76.8717 131.048 76.8415 130.903C76.8091 130.759 76.8998 130.616 77.0445 130.586C78.0052 130.372 78.9853 130.553 79.8035 131.095C80.6217 131.637 81.1723 132.468 81.3493 133.434L94.0155 202.007C94.4106 204.14 96.2715 205.69 98.4412 205.69C98.588 205.69 98.7089 205.809 98.7089 205.958C98.7068 206.105 98.588 206.224 98.4412 206.224Z" fill="#21111D"/>
<path d="M144.383 206.479C144.383 206.479 128.72 206.735 117.742 206.36C114.219 206.239 111.082 206.487 109.225 206.075C101.585 204.378 99.7022 180.527 108.379 165.912C117.055 151.297 147.412 196.167 147.412 196.167L144.383 206.479Z" fill="#7FC6A6"/>
<path d="M172.578 267.772L156.42 266.902C154.672 266.807 153.288 265.384 153.245 263.633L152.85 247.725L172.416 249.711L172.578 267.772Z" fill="#FE9F73"/>
<path d="M131.244 173.762C131.244 173.762 173.211 178.739 174.32 183.182C175.43 187.626 177.82 233.249 175.439 253.401C175.439 253.401 159.741 254.299 152.759 252.609L150.879 206.256L144.109 206.491L127.69 177.606L131.244 173.762Z" fill="#7FC6A6"/>
<path d="M162.178 253.947C155.242 253.947 152.77 252.902 152.651 252.851L152.498 252.784L150.676 206.157L153.543 207.508L153.314 207.992L151.246 207.016L153.018 252.414C153.767 252.674 157.366 253.712 165.861 253.319L165.885 253.855C164.529 253.919 163.297 253.947 162.178 253.947Z" fill="#21111D"/>
<path d="M155.674 243.893C154.933 241.036 154.722 213.185 154.713 212.001L155.248 211.997C155.25 212.286 155.469 240.967 156.192 243.759L155.674 243.893Z" fill="#21111D"/>
<path d="M132.597 206.977C125.762 206.977 117.569 206.746 108.357 206.053L108.398 205.522C135.842 207.59 154.249 205.544 154.43 205.522L154.491 206.051C154.37 206.066 146.166 206.977 132.597 206.977Z" fill="#21111D"/>
<path d="M159.022 272.379L184.892 272.373C185.125 272.336 185.317 272.295 185.455 272.25C187.115 271.721 187.253 270.751 187.176 270.19C187.141 269.942 186.997 269.721 186.783 269.583L172.491 260.329L167.769 262.419C166.267 263.089 164.665 263.514 163.024 263.672C159.674 263.993 154.246 264.166 153.18 262.085L153.398 270.073C153.398 270.073 152.616 272.442 159.022 272.379Z" fill="#FF424D"/>
<path d="M115.047 190.64C115.047 190.64 124.961 185.918 134.18 178.959C143.398 172.003 148.966 167.607 148.966 167.607C148.966 167.607 147.683 164.774 146.449 162.404L144.279 158.232L138.977 135.087C138.977 135.087 137.319 123.955 122.308 121.306C122.882 121.572 121.082 121.099 121.082 121.099C121.082 121.099 107.489 121.591 102.34 122.304C94.335 123.411 93.5147 144.101 93.5147 144.101C93.5125 157.842 95.1381 176.649 99.9136 182.774C105.98 190.556 112.975 190.804 115.056 190.685C115.05 190.655 115.047 190.64 115.047 190.64Z" fill="#EF3A4C"/>
<path d="M111.112 120.669C111.112 120.669 102.049 120.352 97.7224 122.802C91.2652 126.46 93.5665 147.409 93.5665 147.409C93.5665 147.409 99.0523 144.417 99.3848 143.419C99.7172 142.422 111.112 120.669 111.112 120.669Z" fill="#EF3A4C"/>
<path d="M108.786 189.884C109.371 190.106 109.924 190.277 110.431 190.413C113.484 191.223 115.617 190.886 115.706 190.871C115.842 190.849 115.932 190.72 115.911 190.584C115.889 190.448 115.76 190.357 115.624 190.379C115.602 190.383 113.486 190.713 110.531 189.923C107.804 189.195 103.782 187.336 100.105 182.619C95.4875 176.697 93.8014 158.463 93.7604 144.65C93.7604 144.512 93.6482 144.399 93.51 144.401C93.3718 144.401 93.2617 144.514 93.2617 144.652C93.3027 158.545 95.0169 176.906 99.7125 182.928C102.804 186.889 106.14 188.882 108.786 189.884Z" fill="#21111D"/>
<path d="M116.198 167.072C116.244 167.089 116.293 167.093 116.343 167.08C116.477 167.048 116.561 166.914 116.529 166.78C116.488 166.603 112.36 149.059 110.605 138.019C110.583 137.883 110.454 137.791 110.32 137.812C110.184 137.834 110.091 137.961 110.112 138.097C111.872 149.156 116.002 166.72 116.045 166.894C116.065 166.981 116.125 167.043 116.198 167.072Z" fill="#21111D"/>
<path d="M116.261 130.525C116.453 130.545 116.65 130.562 116.85 130.577C116.965 130.586 117.064 130.499 117.071 130.385C117.079 130.271 116.997 130.173 116.878 130.165C108.29 129.562 106.695 123.273 106.682 123.21C106.66 123.1 106.555 123.023 106.444 123.042C106.334 123.061 106.257 123.161 106.274 123.273C106.285 123.336 107.869 129.657 116.261 130.525Z" fill="#21111D"/>
<path d="M122.168 217.209L96.3106 217.164C89.346 217.792 88.517 211.831 88.476 211.505L86.9388 203.182C86.9129 203.037 87.0079 202.897 87.1526 202.871C87.2972 202.845 87.4375 202.94 87.4634 203.084L89.0049 211.438C89.0286 211.675 89.672 217.235 96.2739 216.633L96.2976 216.63L122.166 216.676C122.312 216.676 122.431 216.797 122.431 216.943C122.433 217.09 122.314 217.209 122.168 217.209Z" fill="#21111D"/>
<path d="M91.2154 131.087L78.5038 131.067C78.357 131.067 78.2383 130.946 78.2383 130.8C78.2383 130.653 78.357 130.534 78.506 130.534L91.2154 130.553C91.3622 130.553 91.481 130.672 91.481 130.821C91.481 130.968 91.3622 131.087 91.2154 131.087Z" fill="#21111D"/>
<path d="M138.15 155.86C136.466 150.183 134.649 143.749 134.016 140.427C133.99 140.291 133.858 140.202 133.725 140.228C133.589 140.254 133.5 140.384 133.526 140.52C134.165 143.875 136.002 150.371 137.695 156.08C137.848 156.006 138.001 155.933 138.15 155.86Z" fill="#21111D"/>
<path d="M133.439 179.693C133.368 179.693 133.299 179.659 133.256 179.596C133.189 179.495 133.215 179.359 133.316 179.292C136.187 177.377 147.414 168.55 148.707 167.531C146.937 162.244 141.945 155.732 141.14 154.702L116.855 166.918L113.646 169.252C113.549 169.323 113.411 169.302 113.34 169.205C113.269 169.108 113.29 168.969 113.387 168.898L116.641 166.536L141.261 154.152L141.373 154.29C141.431 154.363 147.28 161.713 149.173 167.544L149.221 167.691L149.1 167.786C148.975 167.885 136.606 177.629 133.56 179.661C133.523 179.683 133.482 179.693 133.439 179.693Z" fill="#21111D"/>
<path d="M176.004 165.485C175.881 165.485 175.775 165.39 175.764 165.264C175.322 160.316 173.73 154.771 173.402 153.668L148.227 157.181L143.754 146.111C139.559 134.217 136.069 129.325 136.034 129.277C130.464 122.178 121.155 121.347 121.06 121.339C120.926 121.328 120.829 121.211 120.84 121.077C120.85 120.943 120.967 120.844 121.101 120.857C121.196 120.866 130.717 121.716 136.42 128.986C136.461 129.042 139.987 133.978 144.205 145.941L148.534 156.65L173.746 153.131L173.806 153.327C173.825 153.39 175.751 159.668 176.246 165.219C176.256 165.353 176.159 165.47 176.028 165.48C176.019 165.485 176.012 165.485 176.004 165.485Z" fill="#21111D"/>
<path d="M123.13 102.393L123.411 113.246C123.411 113.246 123.646 116.731 120.607 117.247L121.298 121.887C121.554 123.612 120.564 125.296 118.914 125.864C118.109 126.142 117.144 126.356 116.043 126.384C112.554 126.475 110.596 123.908 110.272 122.606C109.948 121.304 110.659 115.032 110.659 115.032L110.473 111.964L110.561 100.053L123.13 102.393Z" fill="#FE9F73"/>
<path d="M113.454 114.466C113.454 114.466 113.81 120.3 121.118 120.669L120.609 117.247C120.607 117.247 115.902 118.32 113.454 114.466Z" fill="#F07162"/>
<path d="M114.856 108.304C114.819 108.304 114.783 108.294 114.755 108.265C114.696 108.212 114.692 108.119 114.746 108.06C114.765 108.039 116.713 105.942 118.578 107.367C118.643 107.417 118.653 107.508 118.606 107.57C118.556 107.635 118.466 107.646 118.403 107.598C116.749 106.335 115.035 108.177 114.964 108.257C114.932 108.287 114.895 108.302 114.856 108.304Z" fill="black"/>
<path d="M109.806 106.907L112.96 107.48L113.543 108.052C113.543 108.052 113.135 102.799 112.517 101.78C111.9 100.763 109.806 106.907 109.806 106.907Z" fill="black"/>
<path d="M120.825 107.277C120.784 107.277 120.743 107.262 120.713 107.229C120.659 107.171 120.663 107.078 120.721 107.024C120.78 106.972 122.135 105.75 123.031 106.478C123.094 106.527 123.103 106.62 123.053 106.683C123.003 106.746 122.91 106.754 122.848 106.705C122.146 106.135 120.931 107.227 120.918 107.24C120.894 107.262 120.86 107.275 120.825 107.277Z" fill="black"/>
<path d="M117.811 108.814C117.817 109.056 117.627 109.254 117.386 109.261C117.144 109.267 116.945 109.077 116.939 108.835C116.932 108.594 117.122 108.395 117.364 108.388C117.604 108.384 117.804 108.574 117.811 108.814Z" fill="black"/>
<path d="M122.435 108.259C122.441 108.501 122.251 108.699 122.01 108.706C121.768 108.712 121.569 108.522 121.563 108.281C121.556 108.039 121.746 107.84 121.988 107.834C122.228 107.827 122.428 108.017 122.435 108.259Z" fill="black"/>
<path d="M113.413 110.697C114.443 109.684 114.458 108.027 113.445 106.996C112.433 105.965 110.776 105.951 109.745 106.964C108.715 107.976 108.7 109.633 109.713 110.664C110.725 111.695 112.382 111.71 113.413 110.697Z" fill="#FE9F73"/>
<path d="M111.168 110.289C110.624 110.304 110.25 109.904 110.121 109.498C109.968 109.019 110.117 108.546 110.503 108.291C111.073 107.916 111.604 108.134 111.878 108.304C111.757 108.011 111.574 107.799 111.334 107.674C110.812 107.404 110.177 107.626 110.171 107.629C110.134 107.642 110.091 107.622 110.078 107.585C110.065 107.549 110.084 107.506 110.121 107.493C110.149 107.482 110.82 107.246 111.399 107.544C111.734 107.717 111.967 108.032 112.092 108.481L112.161 108.732L111.971 108.553C111.945 108.527 111.306 107.937 110.583 108.414C110.181 108.678 110.158 109.14 110.259 109.455C110.365 109.783 110.665 110.157 111.164 110.144C111.168 110.144 111.172 110.144 111.179 110.144C111.218 110.144 111.252 110.174 111.254 110.213C111.257 110.254 111.224 110.286 111.185 110.289C111.179 110.289 111.172 110.289 111.168 110.289Z" fill="#F07162"/>
<path d="M119.426 111.716C119.396 111.716 119.365 111.698 119.355 111.668C119.342 111.629 119.361 111.588 119.398 111.575L120.842 111.055L120.294 107.637C120.287 107.598 120.315 107.559 120.354 107.553C120.395 107.547 120.432 107.575 120.438 107.613L121.006 111.15L119.447 111.711C119.441 111.716 119.432 111.716 119.426 111.716Z" fill="#F07162"/>
<path d="M118.334 113.162C118.379 113.151 121.21 113.013 121.21 113.013C121.21 113.013 120.884 114.194 119.832 114.248C118.781 114.302 118.334 113.162 118.334 113.162Z" fill="#FBFDFC"/>
<path d="M109.806 106.907C109.806 106.907 108.792 101.836 110.301 99.8949C111.812 97.9561 120.679 94.4001 121.788 95.3199C122.898 96.2418 121.842 97.4228 121.842 97.4228C121.842 97.4228 125.407 96.177 126.305 99.3443C127.203 102.512 119.504 104.068 114.854 102.695C114.854 102.697 111.827 103.665 109.806 106.907Z" fill="black"/>
<path d="M153.286 160.357L159.58 160.02C160.184 159.988 160.689 159.502 160.696 158.895C160.702 158.23 160.15 157.708 159.498 157.744L153.166 158.083C153.012 158.092 152.883 157.976 152.874 157.822L152.859 157.526C152.853 157.388 152.948 157.265 153.084 157.239L158.876 156.162C159.472 156.052 159.908 155.506 159.837 154.903C159.757 154.243 159.141 153.798 158.498 153.917C158.498 153.917 149.577 155.085 148.168 155.154L149.873 152.338C150.294 151.87 150.255 151.151 149.787 150.73C149.318 150.309 148.6 150.348 148.179 150.816L142.68 155.663C142.632 155.715 142.596 155.784 142.565 155.864C144.236 158.144 147.244 162.52 148.787 166.469L149.793 166.381C151.857 166.199 153.936 166.398 155.931 166.961L156.432 167.104C157.06 167.281 157.716 166.895 157.855 166.245C157.982 165.651 157.598 165.068 157.013 164.902L153.384 163.874C153.269 163.842 153.189 163.74 153.183 163.624C153.174 163.449 153.325 163.31 153.498 163.334L159.012 164.127C159.644 164.217 160.132 163.77 160.098 163.133C160.063 162.497 159.519 161.901 158.887 161.81L153.263 161C153.133 160.981 153.034 160.873 153.025 160.741L153.021 160.648C153.017 160.495 153.135 160.363 153.286 160.357Z" fill="#FE9F73"/>
<path d="M168.769 272.379H165.056L171.755 178.087H179.181L168.769 272.379Z" fill="#FEC786"/>
<path d="M229.261 147.942H197.433L186.334 176.211H218.16L229.261 147.942Z" fill="#4CB7D8"/>
<path d="M186.334 176.211H187.994L199.093 147.942H197.433L186.334 176.211Z" fill="#3AA1C9"/>
<path d="M208.452 161.177C208.012 162.475 208.333 163.76 209.173 164.045C210.013 164.33 211.051 163.509 211.494 162.209C211.934 160.912 211.613 159.627 210.773 159.342C209.933 159.057 208.895 159.878 208.452 161.177Z" fill="#E2F2F1"/>
<path d="M175.811 173.929H187.702V176.211H175.811C175.181 176.211 174.669 175.699 174.669 175.069C174.669 174.44 175.181 173.929 175.811 173.929Z" fill="#3AA1C9"/>
<path d="M178.822 175.071H186.333V174.712H178.822V175.071Z" fill="#4CB7D8"/>
<path d="M167.102 157.63V159.863C163.193 159.863 160.013 163.043 160.013 166.953C160.013 170.861 163.193 174.041 167.102 174.041V174.928C167.102 175.637 167.677 176.209 168.383 176.209H178.251C178.959 176.209 179.531 175.634 179.531 174.928V157.628H167.102V157.63ZM161.761 166.955C161.761 164.01 164.158 161.613 167.102 161.613V172.296C164.158 172.294 161.761 169.9 161.761 166.955Z" fill="#FEBAC7"/>
<path d="M172.532 166.821L172.237 166.997L174.071 170.054L174.365 169.878L172.532 166.821Z" fill="#49263E"/>
<path d="M174.609 167.401L174.312 167.572L176.043 170.579L176.341 170.407L174.609 167.401Z" fill="#49263E"/>
<path d="M313.936 157.63V174.931C313.936 175.639 314.51 176.211 315.216 176.211H325.084C325.792 176.211 326.364 175.637 326.364 174.931V174.043C330.274 174.043 333.454 170.863 333.454 166.955C333.454 163.045 330.274 159.865 326.364 159.865V157.632H313.936V157.63ZM326.366 172.294V161.611C329.311 161.611 331.708 164.008 331.708 166.953C331.708 169.9 329.311 172.294 326.366 172.294Z" fill="#FECC86"/>
<path d="M320.955 166.846L319.121 169.902L319.415 170.079L321.249 167.022L320.955 166.846Z" fill="#49263E"/>
<path d="M318.846 167.415L317.114 170.421L317.412 170.592L319.144 167.586L318.846 167.415Z" fill="#49263E"/>
<path d="M379.734 144.164C379.827 143.564 380.395 143.156 381 143.21L384.758 143.544C384.877 143.555 384.987 143.488 385.035 143.38C385.106 143.221 385.013 143.037 384.842 142.998L379.408 141.772C378.787 141.632 378.489 141.04 378.748 140.455C379.007 139.872 379.728 139.509 380.352 139.65L385.894 140.9C386.023 140.928 386.153 140.863 386.207 140.742L386.246 140.656C386.308 140.515 386.246 140.353 386.105 140.291L380.345 137.732C379.791 137.486 379.493 136.854 379.704 136.284C379.935 135.66 380.637 135.37 381.235 135.636L387.029 138.209C387.17 138.272 387.332 138.209 387.394 138.069L387.515 137.799C387.571 137.672 387.526 137.523 387.407 137.452L382.379 134.379C381.861 134.064 381.649 133.397 381.93 132.859C382.239 132.272 382.975 132.076 383.532 132.415C383.532 132.415 391.449 136.687 392.742 137.253L392.152 134.014C391.926 133.427 392.219 132.769 392.807 132.544C393.394 132.317 394.052 132.611 394.277 133.198L397.686 139.686C397.832 140.068 397.502 140.82 397.092 141.359C394.84 147.69 394.441 148.646 393.677 150.296L387.217 147.161C385.354 146.256 383.34 145.699 381.276 145.513L380.758 145.468C380.106 145.416 379.631 144.82 379.734 144.164Z" fill="#FE9F73"/>
<path d="M398.473 138.607L425.014 161.223L421.99 176.224L414.425 175.103L389 149.378C389.002 149.378 392.176 141.463 398.473 138.607Z" fill="#FD7583"/>
<path d="M420.545 157.656C420.489 157.656 420.435 157.637 420.39 157.598L398.436 138.89C393.717 141.172 390.906 146.232 390.878 146.284C390.813 146.401 390.667 146.444 390.55 146.379C390.433 146.314 390.39 146.168 390.455 146.051C390.483 145.997 393.421 140.701 398.372 138.384L398.512 138.317L420.703 157.226C420.804 157.313 420.817 157.466 420.731 157.567C420.684 157.628 420.615 157.656 420.545 157.656Z" fill="#21111D"/>
<path d="M429.838 100.631C429.838 100.631 427.655 95.9158 433.011 91.8438C438.37 87.7718 439.372 94.5124 441.487 95.104C443.603 95.6956 447.39 94.873 448.862 98.7809C450.334 102.689 449.261 105.85 450.881 107.48C453.586 110.202 460.242 116.12 456.112 126.956C453.4 134.071 444.454 142.392 444.454 142.392C444.454 142.392 422.455 128.323 420.46 121.013C418.463 113.702 421.151 110.494 424.698 107.974C426.88 106.422 431.282 105.105 429.838 100.631Z" fill="#4C222E"/>
<path d="M432.787 102.889C432.787 102.889 430.535 112.951 432.081 115.33C432.081 115.33 432.83 116.591 434.829 116.772L434.37 123.137L443.351 123.787L444.862 102.905L432.787 102.889Z" fill="#FE9F73"/>
<path d="M435.145 111.087C435.184 111.09 435.218 111.066 435.229 111.029C435.242 110.986 435.216 110.941 435.173 110.928C434.655 110.777 434.37 110.103 434.288 109.885C435.065 109.539 435.559 109.054 435.758 108.438C436.08 107.437 435.501 106.465 435.475 106.426C435.451 106.387 435.402 106.374 435.363 106.398C435.324 106.422 435.311 106.471 435.335 106.51C435.341 106.519 435.9 107.458 435.6 108.389C435.412 108.974 434.925 109.438 434.154 109.764L434.087 109.792L434.109 109.863C434.121 109.904 434.424 110.88 435.128 111.085C435.134 111.087 435.138 111.087 435.145 111.087Z" fill="#F07162"/>
<path d="M434.646 119.333L434.831 116.772C434.831 116.772 439.177 116.83 441.953 115.349C441.951 115.349 438.098 118.553 434.646 119.333Z" fill="#F07162"/>
<path d="M440.471 107.136C440.512 107.139 440.553 107.128 440.587 107.1C440.656 107.041 440.667 106.938 440.609 106.869C440.589 106.845 438.646 104.548 436.617 105.955C436.544 106.007 436.524 106.109 436.576 106.184C436.628 106.258 436.729 106.277 436.805 106.225C438.586 104.992 440.285 106.994 440.356 107.078C440.387 107.113 440.428 107.134 440.471 107.136Z" fill="#4C222E"/>
<path d="M434.807 106.368C434.853 106.372 434.9 106.355 434.935 106.32C435 106.255 435 106.152 434.935 106.089C434.876 106.031 433.51 104.679 432.53 105.405C432.456 105.459 432.441 105.562 432.495 105.634C432.549 105.707 432.653 105.722 432.724 105.668C433.477 105.111 434.691 106.307 434.702 106.32C434.732 106.348 434.771 106.366 434.807 106.368Z" fill="#4C222E"/>
<path d="M432.843 107.501C432.826 107.754 433.013 107.972 433.266 107.989C433.519 108.006 433.737 107.819 433.754 107.566C433.771 107.313 433.583 107.095 433.331 107.078C433.08 107.061 432.862 107.249 432.843 107.501Z" fill="black"/>
<path d="M437.892 108.249C438.141 108.204 438.306 107.966 438.261 107.717C438.216 107.468 437.977 107.303 437.729 107.348C437.48 107.393 437.315 107.631 437.36 107.88C437.405 108.128 437.643 108.294 437.892 108.249Z" fill="black"/>
<path d="M447.436 111.408C448.019 110.119 447.447 108.6 446.157 108.017C444.868 107.434 443.35 108.006 442.766 109.296C442.183 110.585 442.755 112.103 444.045 112.687C445.334 113.27 446.852 112.698 447.436 111.408Z" fill="#FE9F73"/>
<path d="M445.168 111.94C445.706 111.979 446.092 111.601 446.239 111.208C446.414 110.742 446.286 110.267 445.917 109.999C445.391 109.617 444.875 109.781 444.59 109.932C444.719 109.669 444.9 109.481 445.131 109.375C445.652 109.138 446.256 109.382 446.261 109.384C446.302 109.401 446.351 109.382 446.369 109.339C446.386 109.298 446.366 109.248 446.323 109.231C446.295 109.22 445.647 108.954 445.062 109.224C444.723 109.38 444.479 109.68 444.337 110.114L444.244 110.392L444.467 110.2C444.495 110.176 445.138 109.634 445.818 110.127C446.194 110.399 446.196 110.846 446.084 111.146C445.967 111.461 445.656 111.813 445.166 111.772C445.123 111.768 445.082 111.802 445.077 111.847C445.073 111.893 445.108 111.932 445.153 111.936C445.157 111.938 445.164 111.938 445.168 111.94Z" fill="#F07162"/>
<path d="M432.787 102.889C432.787 102.889 433.849 99.0119 439.143 98.96C444.436 98.9082 444.86 102.905 444.86 102.905L438.765 103.688L433.176 102.889H432.787Z" fill="#FE9F73"/>
<path d="M433.028 99.5581C433.028 99.5581 436.07 103 440.371 102.581C440.371 102.581 441.413 107.873 444.503 107.855C447.592 107.838 446.441 100.53 446.441 100.53C446.441 100.53 440.865 97.7726 440.5 97.7467C440.137 97.7208 434.067 96.9154 434.067 96.9154L433.028 99.5581Z" fill="#4C222E"/>
<path d="M434.255 112.163C434.302 112.148 437.357 111.759 437.357 111.759C437.357 111.759 437.105 113.065 435.969 113.214C434.833 113.361 434.255 112.163 434.255 112.163Z" fill="#FBFDFC"/>
<path d="M428.017 268.54H443.82V214.478H447.331V268.54H462.724C464.872 268.54 466.614 270.283 466.614 272.429H447.331H443.82H424.127C424.129 270.283 425.869 268.54 428.017 268.54Z" fill="#4C222E"/>
<path d="M491.278 130.821H454.956L435.742 214.478L477.364 210.138L491.278 130.821Z" fill="#FEC786"/>
<path d="M408.08 205.957C408.08 205.957 455.813 205.957 470.058 205.957C472.357 205.957 474.328 204.316 474.744 202.055L487.411 133.482C487.752 131.64 489.552 130.435 491.396 130.846C493.153 131.234 494.25 132.996 493.924 134.766L479.576 212.451C479.464 213.053 479.196 213.585 478.82 214.016C477.896 215.731 476.085 216.899 474.002 216.899H408.08C405.06 216.899 402.609 214.45 402.609 211.428C402.612 208.407 405.06 205.957 408.08 205.957Z" fill="#F99247"/>
<path d="M470.058 206.224C472.484 206.224 474.566 204.492 475.008 202.104L487.674 133.531C487.826 132.708 488.294 132.002 488.991 131.54C489.689 131.078 490.522 130.925 491.34 131.106C491.483 131.139 491.627 131.048 491.658 130.903C491.69 130.759 491.599 130.616 491.455 130.586C490.494 130.372 489.514 130.553 488.696 131.095C487.877 131.637 487.327 132.468 487.15 133.434L474.484 202.007C474.088 204.14 472.227 205.691 470.058 205.691C469.911 205.691 469.79 205.809 469.79 205.958C469.792 206.105 469.911 206.224 470.058 206.224Z" fill="#21111D"/>
<path d="M477.283 131.087C477.283 131.087 477.285 131.087 477.283 131.087L489.995 131.067C490.141 131.067 490.26 130.946 490.26 130.8C490.26 130.653 490.141 130.534 489.992 130.534L477.283 130.553C477.136 130.553 477.018 130.672 477.018 130.821C477.018 130.968 477.136 131.087 477.283 131.087Z" fill="#21111D"/>
<path d="M373.555 267.506L392.501 265.967L392.696 261.983L392.883 247.934L373.317 249.921L373.555 267.506Z" fill="#FE9F73"/>
<path d="M424.661 168.635C424.661 168.635 383.793 173.762 378.08 181.086C375.263 184.698 369.525 233.141 371.906 253.293C371.906 253.293 386.504 254.297 393.486 252.607L395.185 203.469L426.567 193.978L442.679 169.222L424.661 168.635Z" fill="#3AA1C9"/>
<path d="M383.486 253.848C389.412 253.848 393.506 252.877 393.547 252.866L393.745 252.818L395.464 203.132L393.27 204.898L393.607 205.315L394.89 204.283L393.225 252.389C392.316 252.585 388.361 253.367 382.968 253.308L382.964 253.844C383.139 253.848 383.314 253.848 383.486 253.848Z" fill="#21111D"/>
<path d="M386.904 272.379L361.034 272.373C360.801 272.336 360.609 272.295 360.471 272.25C358.81 271.721 358.672 270.751 358.75 270.19C358.784 269.942 358.929 269.721 359.143 269.583L373.435 260.33L378.156 262.42C379.659 263.089 381.261 263.514 382.901 263.672C386.252 263.994 391.628 264.168 392.696 262.087L392.528 270.076C392.528 270.073 393.309 272.442 386.904 272.379Z" fill="#CE1D37"/>
<path d="M424.117 206.479C424.117 206.479 439.78 206.735 450.757 206.36C454.281 206.239 457.418 206.487 459.274 206.075C466.915 204.378 468.797 180.527 460.121 165.912C451.444 151.298 421.088 196.167 421.088 196.167L424.117 206.479Z" fill="#4CB7D8"/>
<path d="M395.922 267.772L412.079 266.902C413.828 266.807 415.212 265.384 415.255 263.633L415.65 247.725L396.084 249.711L395.922 267.772Z" fill="#FE9F73"/>
<path d="M437.258 173.762C437.258 173.762 395.291 178.739 394.182 183.182C393.072 187.626 390.682 233.249 393.063 253.401C393.063 253.401 408.761 254.299 415.742 252.609L417.623 206.256L424.393 206.492L440.812 177.606L437.258 173.762Z" fill="#4CB7D8"/>
<path d="M406.321 253.947C413.258 253.947 415.73 252.902 415.848 252.851L416.002 252.784L417.824 206.157L414.957 207.508L415.186 207.992L417.254 207.016L415.481 252.414C414.732 252.674 411.133 253.712 402.638 253.319L402.614 253.855C403.97 253.919 405.203 253.947 406.321 253.947Z" fill="#21111D"/>
<path d="M414.304 243.521C415.045 240.665 413.778 213.185 413.786 212.001L413.251 211.997C413.249 212.286 414.51 240.596 413.786 243.388L414.304 243.521Z" fill="#21111D"/>
<path d="M435.902 206.977C442.737 206.977 450.93 206.746 460.142 206.053L460.101 205.522C432.657 207.59 414.251 205.544 414.069 205.522L414.009 206.051C414.13 206.066 422.333 206.977 435.902 206.977Z" fill="#21111D"/>
<path d="M409.479 272.379L383.609 272.373C383.376 272.336 383.184 272.295 383.046 272.25C381.386 271.721 381.247 270.751 381.325 270.19C381.36 269.942 381.504 269.721 381.718 269.583L396.01 260.33L400.731 262.42C402.234 263.089 403.836 263.514 405.477 263.672C408.827 263.994 414.255 264.166 415.321 262.085L415.103 270.073C415.101 270.073 415.882 272.442 409.479 272.379Z" fill="#EF3A4C"/>
<path d="M446.332 217.209L472.189 217.164C479.153 217.792 479.982 211.831 480.023 211.505L481.561 203.182C481.586 203.037 481.491 202.897 481.347 202.871C481.202 202.845 481.062 202.94 481.036 203.085L479.494 211.438C479.471 211.675 478.827 217.235 472.225 216.633L472.202 216.63L446.334 216.676C446.187 216.676 446.068 216.797 446.068 216.944C446.066 217.09 446.185 217.209 446.332 217.209Z" fill="#21111D"/>
<path d="M418.991 137.21C418.488 137.903 416.424 159.852 416.111 163.198L416.889 164.414L426.493 176.209C428.348 173.389 429.11 171.763 429.11 171.763C429.11 171.763 419.535 136.459 418.991 137.21Z" fill="#FD7583"/>
<path d="M457.556 186.516C457.556 186.516 446.712 184.784 435.904 180.712C425.097 176.64 418.517 173.996 418.517 173.996C418.517 173.996 418.946 170.917 419.462 168.294L420.367 163.68L418.92 139.978C418.92 139.978 417.37 128.831 431.021 122.051C430.546 122.468 432.139 121.507 432.139 121.507C432.139 121.507 445.87 118.009 450.922 119.238C460.272 121.507 465.077 135.793 465.077 135.793C468.957 148.974 472.707 167.475 469.855 174.7C466.232 183.875 459.592 186.089 457.562 186.561C457.558 186.531 457.556 186.516 457.556 186.516Z" fill="#FD7583"/>
<path d="M416.964 154.603C416.956 154.603 416.949 154.603 416.941 154.601C416.809 154.588 416.712 154.469 416.725 154.338L416.969 151.855C417.64 139.2 419.628 133.468 419.648 133.412C423.072 124.819 431.964 121.315 432.053 121.28C432.176 121.233 432.316 121.295 432.366 121.418C432.413 121.544 432.351 121.682 432.228 121.732C432.139 121.766 423.441 125.197 420.101 133.583C420.084 133.63 418.119 139.308 417.452 151.891L417.208 154.385C417.193 154.51 417.087 154.603 416.964 154.603Z" fill="#21111D"/>
<path d="M432.843 121.332C432.843 121.332 435.099 125.739 439.032 125.311C442.968 124.882 445.82 120.961 445.611 119.093C445.611 119.093 436.884 119.644 432.843 121.332Z" fill="#FE9F73"/>
<path d="M410.594 150.361H410.669H418.32L416.386 173.147H410.669H410.594H404.672L402.942 150.361H410.594Z" fill="#49263E"/>
<path d="M404.984 146.364H410.593H410.667H416.275C416.932 146.364 417.465 146.902 417.465 147.562H410.667H410.593H403.795C403.795 146.9 404.328 146.364 404.984 146.364Z" fill="#CE1D37"/>
<path d="M403.113 148.178C403.189 147.819 403.502 147.562 403.864 147.562H410.594H410.667H417.396C417.759 147.562 418.074 147.819 418.148 148.178L418.787 151.224C418.888 151.706 418.523 152.159 418.035 152.159H410.667H410.594H403.225C402.737 152.159 402.373 151.706 402.474 151.224L403.113 148.178Z" fill="#EF3A4C"/>
<path d="M417.943 157.356L417.442 166.62H410.68H410.585H403.821L403.32 157.356H410.585H410.68H417.943Z" fill="#EF3A4C"/>
<path d="M417.595 166.78H403.823C403.735 166.78 403.661 166.709 403.661 166.618C403.661 166.53 403.732 166.456 403.823 166.456H417.29L417.782 157.345C417.787 157.257 417.862 157.187 417.953 157.194C418.042 157.198 418.111 157.274 418.104 157.365L417.595 166.78Z" fill="#21111D"/>
<path d="M407.005 155.113C406.949 155.113 406.895 155.082 406.865 155.031L405.55 152.71C405.507 152.632 405.533 152.535 405.611 152.489C405.688 152.446 405.785 152.472 405.831 152.55L407.146 154.871C407.189 154.949 407.163 155.046 407.085 155.091C407.059 155.106 407.031 155.113 407.005 155.113Z" fill="#21111D"/>
<path d="M406.786 156.445C406.73 156.445 406.676 156.417 406.645 156.365L405.456 154.322C405.411 154.245 405.436 154.148 405.514 154.102C405.592 154.057 405.689 154.083 405.734 154.161L406.924 156.203C406.969 156.281 406.943 156.378 406.866 156.423C406.84 156.438 406.812 156.445 406.786 156.445Z" fill="#21111D"/>
<path d="M405.855 162.656C404.871 161.201 406.287 159.85 406.287 159.85C406.183 157.906 407.189 157.093 407.189 157.093C407.189 157.093 411.654 159.651 414.353 161.266C416.034 161.326 416.762 160.633 416.762 160.633L416.792 160.709C417.088 159.297 417.459 157.531 417.496 157.332C417.558 156.993 418.202 156.553 418.847 157.781C419.493 159.01 420.926 162.067 420.926 162.067L425.279 160.497L426.496 173.028C426.496 173.028 415.974 172.564 414.374 172.383C412.774 172.202 407.526 169.883 406.144 168.225C404.763 166.566 405.341 165.422 405.341 165.422C404.4 163.734 405.855 162.656 405.855 162.656Z" fill="#FE9F73"/>
<path d="M409.419 162.324C409.499 162.339 409.583 162.302 409.624 162.227C409.676 162.134 409.64 162.015 409.547 161.965C408.23 161.251 406.431 159.72 406.414 159.705C406.332 159.636 406.211 159.644 406.142 159.727C406.073 159.809 406.082 159.929 406.164 159.999C406.239 160.063 408.012 161.57 409.363 162.304C409.38 162.313 409.4 162.32 409.419 162.324Z" fill="#F07162"/>
<path d="M408.97 164.731C409.061 164.749 409.152 164.699 409.186 164.61C409.225 164.511 409.175 164.399 409.076 164.36C407.375 163.704 405.998 162.52 405.985 162.51C405.903 162.44 405.782 162.449 405.713 162.529C405.644 162.609 405.652 162.732 405.732 162.801C405.79 162.851 407.172 164.038 408.938 164.72C408.947 164.727 408.957 164.729 408.97 164.731Z" fill="#F07162"/>
<path d="M408.034 167.4C408.122 167.417 408.211 167.37 408.248 167.285C408.289 167.186 408.243 167.074 408.144 167.033C406.693 166.424 405.484 165.295 405.471 165.282C405.393 165.208 405.27 165.213 405.197 165.29C405.124 165.368 405.128 165.491 405.206 165.565C405.257 165.612 406.477 166.754 407.993 167.389C408.008 167.393 408.021 167.398 408.034 167.4Z" fill="#F07162"/>
<path d="M463.348 184.025C462.849 184.402 462.367 184.724 461.918 184.996C459.218 186.635 457.078 186.913 456.988 186.926C456.852 186.944 456.726 186.846 456.709 186.71C456.692 186.574 456.789 186.449 456.925 186.432C456.946 186.43 459.069 186.149 461.681 184.558C464.09 183.09 467.424 180.173 469.621 174.609C472.38 167.624 468.851 149.657 464.991 136.392C464.952 136.26 465.027 136.119 465.161 136.083C465.293 136.044 465.431 136.12 465.47 136.253C469.352 149.592 472.89 167.691 470.086 174.792C468.242 179.46 465.606 182.315 463.348 184.025Z" fill="#21111D"/>
<path d="M449.799 164.232C449.76 164.261 449.714 164.28 449.663 164.282C449.524 164.291 449.408 164.185 449.399 164.047C449.388 163.865 448.395 145.87 446.964 134.783C446.947 134.647 447.044 134.522 447.18 134.505C447.316 134.487 447.441 134.584 447.458 134.72C448.892 145.827 449.887 163.842 449.896 164.021C449.902 164.105 449.863 164.183 449.799 164.232Z" fill="#21111D"/>
<path d="M438.494 128.394C438.304 128.429 438.11 128.461 437.912 128.492C437.799 128.509 437.694 128.431 437.676 128.317C437.659 128.204 437.735 128.099 437.851 128.081C446.366 126.803 447.46 120.41 447.467 120.345C447.48 120.233 447.579 120.149 447.691 120.16C447.804 120.171 447.888 120.263 447.881 120.378C447.875 120.443 446.793 126.868 438.494 128.394Z" fill="#21111D"/>
<path d="M425.576 159.673C425.589 153.75 425.516 147.066 425.186 143.7C425.173 143.562 425.272 143.441 425.41 143.428C425.548 143.415 425.669 143.514 425.682 143.652C426.017 147.051 426.088 153.802 426.075 159.757C425.909 159.727 425.741 159.698 425.576 159.673Z" fill="#21111D"/>
<path d="M430.507 165.228L426.496 159.91L422.381 159.405C422.381 159.405 419.917 164.632 419.296 168.926C418.674 173.221 418.305 173.76 418.305 173.76L432.139 174.222L430.507 165.228Z" fill="#FD7583"/>
<path d="M436.822 181.207C436.891 181.187 436.947 181.133 436.971 181.062C437.007 180.946 436.942 180.823 436.826 180.788C433.529 179.762 420.269 174.464 418.741 173.851C418.948 168.278 421.897 160.623 422.381 159.407L449.127 164.271L452.864 165.603C452.979 165.644 453.104 165.584 453.145 165.47C453.186 165.355 453.125 165.23 453.011 165.189L449.224 163.842L422.109 158.91L422.042 159.074C422.005 159.161 418.471 167.864 418.298 173.991L418.294 174.145L418.436 174.201C418.583 174.259 433.199 180.117 436.696 181.207C436.737 181.22 436.783 181.22 436.822 181.207Z" fill="#21111D"/>
<path d="M571.526 193.643C571.526 193.643 569.958 171.78 561.472 176.025C552.985 180.268 546.068 208.126 545.146 208.955C544.224 209.786 544.501 235.244 544.501 235.244L554.369 230.263C554.371 230.265 556.996 169.41 571.526 193.643Z" fill="#258D8C"/>
<path d="M562.016 148.379C562.016 148.379 543.003 165.392 537.813 194.565C532.623 223.738 549.02 232.322 549.02 232.322C549.02 232.322 551.354 170.984 562.016 148.379Z" fill="#7FC6A6"/>
<path d="M526.746 236.258C526.746 236.258 523.564 174.158 507.515 147.232C507.515 147.232 535.69 164.042 545.034 208.167C545.561 210.652 545.872 213.411 546.271 216.071C546.685 218.837 546.932 221.287 546.869 223.734C546.757 228.054 546.159 231.768 545.982 234.497C544.457 258.076 526.746 236.258 526.746 236.258Z" fill="#258D8C"/>
<path d="M527.29 209.888C526.198 201.033 522.837 192.594 517.435 185.495C513.532 180.367 509.015 176.47 505.486 179.251C497.644 185.43 496.077 223.805 496.077 223.805C496.077 223.805 504.933 197.238 508.806 198.991C512.679 200.744 516.278 236.811 516.278 236.811L530.76 238.009L527.29 209.888Z" fill="#7FC6A6"/>
<path d="M547.042 234.091C547.636 220.532 545.937 207.519 541.988 195.413C538.83 185.728 534.234 176.597 528.327 168.276C518.269 154.106 507.748 147.105 507.643 147.036L507.386 147.426C507.489 147.495 517.951 154.458 527.958 168.563C537.189 181.576 547.915 203.503 546.574 234.067L547.042 234.091Z" fill="#21111D"/>
<path d="M549.255 232.331C549.261 232.178 549.859 216.794 551.752 198.848C553.499 182.297 556.733 160.126 562.227 148.478L561.804 148.277C556.282 159.983 553.037 182.213 551.286 198.801C549.391 216.762 548.79 232.158 548.786 232.312L549.255 232.331Z" fill="#21111D"/>
<path d="M554.604 230.273C554.609 230.174 555.053 220.171 556.523 210.037C558.456 196.711 561.249 189.213 564.6 188.353C566.58 187.846 568.842 189.666 571.325 193.762L571.726 193.518C569.123 189.223 566.685 187.334 564.483 187.898C560.882 188.82 558.05 196.247 556.059 209.97C554.587 220.128 554.14 230.15 554.136 230.25L554.604 230.273Z" fill="#21111D"/>
<path d="M530.527 238.039L530.991 237.981L527.521 209.857C526.414 200.884 522.99 192.41 517.619 185.352C514.218 180.883 511.198 178.452 508.64 178.128C507.433 177.975 506.321 178.29 505.339 179.065C502.038 181.667 499.436 189.994 497.608 203.812C496.25 214.07 495.846 223.697 495.842 223.792L496.31 223.811C496.325 223.429 497.964 185.475 505.63 179.432C506.511 178.737 507.506 178.454 508.584 178.59C511.01 178.899 513.927 181.267 517.247 185.633C522.569 192.624 525.961 201.02 527.057 209.911L530.527 238.039Z" fill="#21111D"/>
<path d="M515.446 203.345L515.029 203.56L518.07 209.459L518.487 209.244L515.446 203.345Z" fill="#21111D"/>
<path d="M515.47 207.333L515.06 207.559L518.101 213.084L518.512 212.858L515.47 207.333Z" fill="#21111D"/>
<path d="M549.181 168.217L546.581 173.926L547.007 174.12L549.608 168.411L549.181 168.217Z" fill="#21111D"/>
<path d="M548.827 172.649L546.612 176.645L547.022 176.872L549.236 172.876L548.827 172.649Z" fill="#21111D"/>
<path d="M563.748 178.12L559.32 180.377L559.533 180.794L563.961 178.537L563.748 178.12Z" fill="#21111D"/>
<path d="M561.87 180.724L559.251 182.317L559.494 182.718L562.113 181.124L561.87 180.724Z" fill="#21111D"/>
<path d="M559.398 228.684C559.398 228.684 558.571 274.085 546.412 273.02H536.85H535.315H525.753C513.594 274.085 512.768 228.684 512.768 228.684C524.274 226.946 547.891 226.946 559.398 228.684Z" fill="#F99247"/>
<path d="M517.603 234.507L517.263 234.829L530.545 248.864L530.886 248.542L517.603 234.507Z" fill="#21111D"/>
<path d="M521.508 243.55L521.154 243.858L528.467 252.27L528.82 251.962L521.508 243.55Z" fill="#21111D"/>
<path d="M360.46 168.779C360.46 168.779 361.986 172.618 360.706 175.522L390.039 175.768L392.746 175.522L395.132 174.043V171.78L394.469 169.911L392.304 168.779H360.46Z" fill="white"/>
<path d="M391.411 176.143H359.72C359.513 176.143 359.347 175.977 359.347 175.77C359.347 175.562 359.513 175.396 359.72 175.396H391.411C393.323 175.396 394.88 173.952 394.88 172.177C394.88 170.402 393.323 168.958 391.411 168.958H359.72C359.513 168.958 359.347 168.789 359.347 168.584C359.347 168.379 359.513 168.211 359.72 168.211H391.411C393.736 168.211 395.627 169.99 395.627 172.177C395.627 174.362 393.736 176.143 391.411 176.143Z" fill="#EF3A4C"/>
<path d="M376.442 172.26H360.89C360.844 172.26 360.808 172.223 360.808 172.178C360.808 172.132 360.844 172.096 360.89 172.096H376.442C376.488 172.096 376.524 172.132 376.524 172.178C376.524 172.223 376.488 172.26 376.442 172.26Z" fill="#AAC9F8"/>
<path d="M393.742 172.26H378.634C378.588 172.26 378.552 172.223 378.552 172.178C378.552 172.132 378.588 172.096 378.634 172.096H393.742C393.787 172.096 393.824 172.132 393.824 172.178C393.824 172.223 393.787 172.26 393.742 172.26Z" fill="#AAC9F8"/>
<path d="M393.336 173.747H385.583C385.538 173.747 385.501 173.711 385.501 173.665C385.501 173.62 385.538 173.583 385.583 173.583H393.336C393.381 173.583 393.418 173.62 393.418 173.665C393.418 173.711 393.381 173.747 393.336 173.747Z" fill="#AAC9F8"/>
<path d="M384.445 173.747H360.89C360.844 173.747 360.808 173.711 360.808 173.665C360.808 173.62 360.844 173.583 360.89 173.583H384.445C384.491 173.583 384.527 173.62 384.527 173.665C384.53 173.711 384.493 173.747 384.445 173.747Z" fill="#AAC9F8"/>
<path d="M391.412 176.226H359.721C359.469 176.226 359.264 176.021 359.264 175.768C359.264 175.516 359.469 175.311 359.721 175.311C359.767 175.311 359.803 175.347 359.803 175.393C359.803 175.438 359.767 175.475 359.721 175.475C359.562 175.475 359.43 175.604 359.43 175.766C359.43 175.926 359.559 176.058 359.721 176.058H391.412C393.692 176.058 395.546 174.315 395.546 172.173C395.546 170.032 393.692 168.289 391.412 168.289H359.721C359.562 168.289 359.43 168.419 359.43 168.581C359.43 168.74 359.559 168.872 359.721 168.872C359.767 168.872 359.803 168.909 359.803 168.954C359.803 169 359.767 169.036 359.721 169.036C359.469 169.036 359.264 168.831 359.264 168.579C359.264 168.326 359.469 168.121 359.721 168.121H391.412C393.782 168.121 395.712 169.937 395.712 172.171C395.712 174.41 393.782 176.226 391.412 176.226Z" fill="#21111D"/>
<path d="M369.268 170.688C369.268 170.688 368.271 173.175 368.845 175.006L369.657 173.754C369.657 173.754 370.21 174.419 370.551 175.006C370.551 175.006 371.17 170.917 372.371 170.688H369.268Z" fill="#7FC6A6"/>
<path d="M393.336 170.77H360.892C360.846 170.77 360.81 170.733 360.81 170.688C360.81 170.643 360.846 170.606 360.892 170.606H393.336C393.381 170.606 393.418 170.643 393.418 170.688C393.418 170.733 393.381 170.77 393.336 170.77Z" fill="#AAC9F8"/>
<path d="M410.157 272.379H413.871L407.172 178.087H399.745L410.157 272.379Z" fill="#FEC786"/>
<path d="M422.656 176.207H156.274V183.18H422.656V176.207Z" fill="#4C222E"/>
<path d="M621.845 272.481H0V274.055H621.845V272.481Z" fill="black"/>
</svg>
