<svg width="64" height="44" viewBox="0 0 64 44" fill="none" xmlns="http://www.w3.org/2000/svg">
<path d="M44.992 14.2615H17.4751C16.8981 14.2615 16.429 14.7322 16.4793 15.2853C17.0824 21.8701 23.4576 27.0518 31.2326 27.0518C39.0076 27.0518 45.3829 21.8701 45.986 15.2853C46.0381 14.7322 45.569 14.2615 44.992 14.2615Z" fill="#FF6633"/>
<path d="M26.2662 4.40841C25.9591 4.40841 25.6539 4.27596 25.4547 4.0218C24.4495 2.75101 22.5398 1.95989 20.4718 1.95989C18.4038 1.95989 16.494 2.74922 15.4888 4.0218C15.1482 4.45316 14.5079 4.53549 14.0611 4.20795C13.6126 3.88041 13.5269 3.2647 13.8676 2.83513C15.271 1.05959 17.7392 0 20.4718 0C23.2043 0 25.6725 1.05959 27.0778 2.83513C27.4184 3.26648 27.331 3.88041 26.8842 4.20795C26.6981 4.34398 26.4822 4.40841 26.2662 4.40841Z" fill="#414141"/>
<path d="M47.7877 4.40841C47.4806 4.40841 47.1753 4.27596 46.9762 4.0218C45.971 2.75101 44.0612 1.95989 41.9932 1.95989C39.9252 1.95989 38.0155 2.74922 37.0103 4.0218C36.6697 4.45316 36.0294 4.53549 35.5826 4.20795C35.134 3.88041 35.0484 3.2647 35.389 2.83513C36.7925 1.05959 39.2607 0 41.9932 0C44.7258 0 47.194 1.05959 48.5993 2.83513C48.9399 3.26648 48.8524 3.88041 48.4057 4.20795C48.2196 4.34398 48.0037 4.40841 47.7877 4.40841Z" fill="#414141"/>
<path d="M2.85197 30.0033L2.45178 31.0217C2.41641 31.1058 2.28797 31.1398 2.16885 31.0986C1.89708 31.0199 1.61601 30.8785 1.32192 30.6709C1.02968 30.4668 0.798866 30.2503 0.627619 30.0229C0.368886 29.6775 0.188332 29.3016 0.087817 28.9007C-0.00897503 28.4962 -0.0238661 28.106 0.0338368 27.723C0.0952625 27.3435 0.236728 26.9766 0.456371 26.6258C0.677876 26.275 0.962668 25.9761 1.32005 25.7291C1.67558 25.4821 2.06089 25.3138 2.47597 25.2226C2.89106 25.1313 3.29871 25.117 3.69332 25.1814C4.09352 25.2458 4.47324 25.3836 4.83807 25.6002C5.20663 25.815 5.5212 26.0978 5.77993 26.4432C5.9456 26.6652 6.0852 26.9462 6.19316 27.2809C6.30484 27.6156 6.36068 27.9288 6.35882 28.2223C6.36068 28.3405 6.2732 28.43 6.17641 28.4336L5.04841 28.464C4.94045 28.464 4.8511 28.3673 4.8511 28.2295C4.85482 28.0631 4.83249 27.8948 4.77851 27.7194C4.72453 27.544 4.65566 27.399 4.57003 27.2845C4.29269 26.9158 3.92413 26.692 3.46251 26.6204C3.00461 26.547 2.58766 26.6437 2.20421 26.9086C1.82449 27.1717 1.5974 27.5225 1.52667 27.9646C1.45966 28.4031 1.5639 28.8112 1.84124 29.1799C1.92687 29.2945 2.04413 29.4019 2.19677 29.5021C2.35126 29.6041 2.50203 29.6811 2.65653 29.7294C2.8073 29.7759 2.89106 29.8959 2.85197 30.0033Z" fill="#414141"/>
<path d="M7.35454 28.8363C7.44761 28.7378 7.56674 28.7342 7.66726 28.8237L10.5636 31.3832C10.6659 31.4727 10.6697 31.5873 10.5766 31.6839L9.92512 32.3641C9.82646 32.4679 9.72037 32.4715 9.61241 32.3766L7.65795 30.6494L6.97296 31.3653L8.45648 32.6773C8.56817 32.7757 8.57934 32.8939 8.47882 32.9977L7.94088 33.5597C7.84781 33.6581 7.7231 33.6563 7.61328 33.5597L6.12975 32.2477L5.42615 32.9852L7.3806 34.7124C7.51835 34.8341 7.52951 34.9916 7.41225 35.1115L6.80171 35.7505C6.71051 35.8453 6.58952 35.8471 6.489 35.7576L3.53312 33.148C3.43074 33.0585 3.4233 32.9476 3.51637 32.8491L7.35454 28.8363Z" fill="#414141"/>
<path d="M13.6204 37.2575C13.6129 37.5421 13.5292 37.8088 13.3672 38.0576C13.0601 38.5319 12.6618 38.804 12.1722 38.8756C11.6864 38.949 11.1559 38.8165 10.5845 38.4729L8.57232 37.2665C8.47925 37.211 8.46249 37.1394 8.51834 37.0535L11.5822 32.3283C11.638 32.2424 11.7125 32.2263 11.8037 32.2817L13.6669 33.3986C14.2123 33.7262 14.5529 34.1056 14.6907 34.5388C14.8284 34.9719 14.7503 35.4176 14.4562 35.8722C14.2198 36.2373 13.8065 36.4772 13.3914 36.4897C13.5515 36.7188 13.6278 36.973 13.6204 37.2575ZM11.2862 37.356C11.6157 37.5547 11.9545 37.4813 12.1555 37.1716C12.3528 36.8674 12.2653 36.5541 11.934 36.3572L11.0889 35.8507L10.4411 36.8495L11.2862 37.356ZM12.2374 34.0823L11.6901 34.9254L12.3882 35.3442C12.6692 35.5124 12.9484 35.4534 13.116 35.1938C13.2835 34.9343 13.2146 34.6694 12.9335 34.5012L12.2374 34.0823Z" fill="#414141"/>
<path d="M16.4645 35.1866C16.5166 35.0631 16.6245 35.0184 16.753 35.0685L20.4031 36.4771C20.5316 36.5272 20.5781 36.6311 20.526 36.7546L20.1686 37.6119C20.1146 37.7425 20.016 37.7819 19.8801 37.73L17.4156 36.7796L17.0396 37.6817L18.9103 38.403C19.0499 38.4567 19.1039 38.5641 19.0499 38.6948L18.754 39.4035C18.7018 39.527 18.5864 39.5682 18.4468 39.5145L16.5761 38.7932L16.189 39.7221L18.6534 40.6725C18.8284 40.7406 18.8954 40.882 18.8303 41.0359L18.4934 41.8413C18.4431 41.9612 18.3314 42.0042 18.203 41.9541L14.4784 40.5168C14.3499 40.4667 14.3015 40.3665 14.3536 40.243L16.4645 35.1866Z" fill="#414141"/>
<path d="M23.9776 37.3452C24.6142 37.4794 25.0889 37.7694 25.4016 38.2186C25.7143 38.6643 25.8055 39.1887 25.6659 39.7937C25.53 40.3915 25.2192 40.8282 24.7408 41.1057C24.2624 41.3795 23.7077 41.4511 23.0693 41.3169L22.3545 41.1665L21.9971 42.7291C21.9673 42.8579 21.8687 42.9206 21.7253 42.8902L20.6792 42.67C20.5452 42.6414 20.4857 42.5465 20.5136 42.4176L21.7291 37.0964C21.757 36.9747 21.8631 36.9031 21.9897 36.9299L22.5164 37.0409L23.0469 37.1537L23.9776 37.3452ZM23.3038 40.0103C23.5123 40.055 23.7021 40.0246 23.8678 39.9244C24.0372 39.8241 24.1433 39.6738 24.1898 39.4733C24.2363 39.2729 24.2047 39.0939 24.0949 38.9346C23.9906 38.7717 23.8306 38.6679 23.6221 38.6249L22.9687 38.4871L22.6523 39.8742L23.3038 40.0103Z" fill="#414141"/>
<path d="M31.2775 38.131C31.4078 38.1382 31.4897 38.2313 31.4822 38.3548L31.1695 43.7995C31.1621 43.932 31.0783 44.0089 30.9405 44L29.8721 43.9427C29.7251 43.9355 29.6469 43.8496 29.6543 43.7172L29.7474 42.0956L29.1257 42.0633L28.1373 43.6706C28.0498 43.8067 27.994 43.8443 27.873 43.8371L26.624 43.7709C26.49 43.7637 26.423 43.6313 26.4956 43.5185L27.6738 41.6678C27.0968 41.2955 26.7841 40.6708 26.8269 39.9352C26.8623 39.3213 27.0912 38.838 27.5175 38.489C27.9437 38.1364 28.4854 37.9807 29.1369 38.0147L31.0038 38.1131L31.2775 38.131ZM29.82 40.8391L29.9038 39.3768L29.1238 39.3356C28.9061 39.3249 28.7236 39.3821 28.5784 39.5074C28.4333 39.6327 28.3532 39.7974 28.3402 40.0068C28.329 40.2162 28.3886 40.3952 28.5189 40.5509C28.6529 40.7031 28.8279 40.7854 29.0401 40.7961L29.82 40.8391Z" fill="#414141"/>
<path d="M37.8849 37.5529C37.9891 37.5404 38.0487 37.5869 38.0617 37.6907L38.7504 43.2178C38.7635 43.3216 38.7151 43.3789 38.6127 43.3914L37.4382 43.5274C37.3339 43.54 37.2744 43.4934 37.2613 43.3896L36.9877 41.1935L34.7168 41.4548L34.9904 43.6509C35.0035 43.7548 34.9551 43.812 34.8527 43.8246L33.6819 43.9588C33.5739 43.9713 33.5144 43.9248 33.5013 43.821L32.8126 38.2939C32.7996 38.1901 32.848 38.1328 32.9559 38.1203L34.1268 37.986C34.231 37.9735 34.2906 38.0201 34.3036 38.1239L34.5549 40.141L36.8258 39.8797L36.5745 37.8625C36.5615 37.7587 36.6098 37.7015 36.7122 37.6889L37.8849 37.5529Z" fill="#414141"/>
<path d="M39.7982 38.9776C39.8317 38.5642 39.9396 38.1865 40.1183 37.8464C40.3008 37.5046 40.552 37.1967 40.8741 36.9282C41.1942 36.6562 41.5609 36.4557 41.9779 36.3233C42.3948 36.1908 42.8136 36.1425 43.2362 36.1783C43.6606 36.2087 44.0533 36.3125 44.407 36.4844C44.7644 36.6544 45.0864 36.896 45.3656 37.2092C45.6485 37.5171 45.857 37.8697 45.9947 38.2706C46.1771 38.8022 46.2106 39.3338 46.0971 39.86C45.9836 40.388 45.7434 40.8534 45.3656 41.2579C44.9933 41.6606 44.528 41.947 43.9714 42.1242C43.5545 42.2566 43.1356 42.305 42.7112 42.2745C42.285 42.2405 41.8922 42.1367 41.5349 41.9667C41.1812 41.7949 40.861 41.555 40.58 41.2489C40.3026 40.9393 40.0923 40.5867 39.9564 40.1894C39.8168 39.7884 39.7665 39.3857 39.7982 38.9776ZM42.218 40.6601C42.6256 40.857 43.0519 40.882 43.4968 40.7406C43.9379 40.601 44.2599 40.3361 44.4665 39.9459C44.6713 39.554 44.7048 39.1512 44.5577 38.727C44.4107 38.2993 44.1333 37.9896 43.7257 37.7927C43.3181 37.5959 42.8937 37.5654 42.4544 37.705C42.0132 37.8446 41.6875 38.1131 41.4827 38.5051C41.278 38.8971 41.2463 39.3052 41.3934 39.7312C41.5386 40.1571 41.8122 40.4632 42.218 40.6601Z" fill="#414141"/>
<path d="M49.9468 32.774C50.0473 32.7185 50.172 32.7561 50.2372 32.8635L53.0665 37.5815C53.1279 37.6818 53.0944 37.8124 52.9883 37.8697L52.0502 38.3888C51.9459 38.4478 51.8175 38.4102 51.7561 38.31L50.8012 36.7188C50.6839 37.1037 50.3973 37.4706 49.9933 37.6961C49.3698 38.0415 48.7481 38.131 48.1301 37.9682C47.5103 37.8017 47.0096 37.4026 46.6298 36.7689L45.7717 35.3371C45.7103 35.2368 45.7382 35.1044 45.8369 35.0507L46.7676 34.5352C46.883 34.4708 47.0189 34.503 47.0821 34.6104L47.9384 36.0387C48.266 36.5846 48.7965 36.7224 49.3661 36.4074C49.6527 36.2481 49.8277 36.0441 49.904 35.7935C49.9803 35.5429 49.9412 35.2852 49.7849 35.0238L48.9249 33.5884C48.8635 33.4881 48.8951 33.3539 48.9975 33.2984L49.9468 32.774Z" fill="#414141"/>
<path d="M59.2314 32.6002C59.3747 32.6342 59.4436 32.7631 59.3356 32.8562L58.3007 33.7457C58.2356 33.8012 58.1574 33.8263 58.0736 33.8155L55.3876 33.1461L54.7455 33.6974L56.2309 35.2957C56.3034 35.3745 56.2997 35.4479 56.2215 35.5141L55.3337 36.2784C55.2518 36.3482 55.1754 36.3446 55.1029 36.2658L51.2498 32.1187C51.1809 32.0436 51.1846 31.9702 51.2647 31.9004L52.1526 31.1361C52.2307 31.0699 52.3071 31.0735 52.3778 31.1486L53.7924 32.6718L54.295 32.2405L54.0586 29.6989C54.0437 29.5449 54.0921 29.4823 54.2019 29.3874L55.2276 28.5068C55.343 28.4084 55.4695 28.4835 55.4826 28.6428L55.7599 31.7482L59.2314 32.6002Z" fill="#414141"/>
<path d="M63.8453 26.6723C63.9886 26.7063 64.0463 26.8083 63.9533 26.9372L63.2701 27.8715C63.2031 27.9628 63.0747 28.0003 62.9518 27.9717L62.1366 27.7444L60.9173 29.4107L61.4143 30.0658C61.4907 30.1571 61.4962 30.2896 61.4218 30.3898L60.7405 31.3205C60.6512 31.4422 60.5339 31.4369 60.4446 31.3116L57.0959 26.4217C57.0215 26.3071 57.0252 26.1765 57.0922 26.0852L57.6004 25.3907C57.6674 25.2994 57.8014 25.2565 57.9261 25.2869L63.8453 26.6723ZM60.13 28.3762L60.8559 27.3828L58.9778 26.8548L60.13 28.3762Z" fill="#414141"/>
</svg>
