<svg width="32" height="32" viewBox="0 0 32 32" fill="none" xmlns="http://www.w3.org/2000/svg">
<path fill-rule="evenodd" clip-rule="evenodd" d="M7.33331 28C7.33331 26.159 8.8257 24.6667 10.6666 24.6667C12.5076 24.6667 14 26.159 14 28C14 29.8409 12.5076 31.3333 10.6666 31.3333C8.8257 31.3333 7.33331 29.8409 7.33331 28ZM10.6666 26C9.56208 26 8.66665 26.8954 8.66665 28C8.66665 29.1046 9.56208 30 10.6666 30C11.7712 30 12.6666 29.1046 12.6666 28C12.6666 26.8954 11.7712 26 10.6666 26Z" fill="white"/>
<path fill-rule="evenodd" clip-rule="evenodd" d="M23.3333 28C23.3333 26.159 24.8257 24.6667 26.6666 24.6667C28.5076 24.6667 30 26.159 30 28C30 29.8409 28.5076 31.3333 26.6666 31.3333C24.8257 31.3333 23.3333 29.8409 23.3333 28ZM26.6666 26C25.5621 26 24.6666 26.8954 24.6666 28C24.6666 29.1046 25.5621 30 26.6666 30C27.7712 30 28.6666 29.1046 28.6666 28C28.6666 26.8954 27.7712 26 26.6666 26Z" fill="white"/>
<path fill-rule="evenodd" clip-rule="evenodd" d="M1.33335 0.666656C0.965164 0.666656 0.666687 0.965133 0.666687 1.33332C0.666687 1.70151 0.965164 1.99999 1.33335 1.99999H6.10737C7.11712 7.72195 8.13779 13.419 8.9991 19.1611C9.24386 20.7929 10.6456 22 12.2956 22H25.8129C27.4018 22 28.7699 20.8785 29.0815 19.3204L31.0005 9.72556C31.248 8.48797 30.3014 7.33332 29.0393 7.33332H9.54731C9.14336 7.33332 8.77065 7.45201 8.45917 7.65456L7.32321 1.21747C7.26699 0.898895 6.99018 0.666656 6.66669 0.666656H1.33335ZM8.88801 9.43222C8.82755 9.02915 9.13973 8.66666 9.54731 8.66666H29.0393C29.46 8.66666 29.7755 9.05154 29.693 9.46407L27.7741 19.0589C27.5871 19.9937 26.7663 20.6667 25.8129 20.6667H12.2956C11.3056 20.6667 10.4645 19.9424 10.3177 18.9633L8.88801 9.43222Z" fill="white"/>
</svg>
