<svg width="13" height="13" viewBox="0 0 13 13" fill="none" xmlns="http://www.w3.org/2000/svg">
<path d="M5.56385 0.557433C5.93066 -0.185813 6.99051 -0.185812 7.35732 0.557434L8.57906 3.03294C8.72472 3.32808 9.00628 3.53265 9.332 3.57998L12.0639 3.97694C12.8841 4.09613 13.2116 5.1041 12.6181 5.68264L10.6413 7.60955C10.4056 7.83929 10.298 8.17029 10.3537 8.49468L10.8203 11.2155C10.9605 12.0324 10.103 12.6554 9.3694 12.2697L6.92593 10.9851C6.6346 10.8319 6.28657 10.8319 5.99525 10.9851L3.55178 12.2697C2.81815 12.6554 1.96072 12.0324 2.10083 11.2155L2.56749 8.49468C2.62313 8.17029 2.51558 7.83929 2.27989 7.60955L0.303083 5.68264C-0.290434 5.1041 0.0370771 4.09613 0.857297 3.97694L3.58918 3.57998C3.91489 3.53265 4.19645 3.32808 4.34212 3.03294L5.56385 0.557433Z" fill="#BFBFBF"/>
</svg>
